<?xml version="1.0" encoding="utf-8"?>
<!-- Generator: Adobe Illustrator 16.0.0, SVG Export Plug-In . SVG Version: 6.00 Build 0)  -->
<!DOCTYPE svg PUBLIC "-//W3C//DTD SVG 1.1//EN" "http://www.w3.org/Graphics/SVG/1.1/DTD/svg11.dtd">
<svg version="1.1" id="Layer_1" xmlns="http://www.w3.org/2000/svg" xmlns:xlink="http://www.w3.org/1999/xlink" x="0px" y="0px"
	 width="19.727px" height="19.726px" viewBox="0 0 19.727 19.726" enable-background="new 0 0 19.727 19.726" xml:space="preserve">
<path d="M9.863,0C4.416,0,0,4.416,0,9.863c0,4.212,2.645,7.796,6.361,9.21c-0.141-0.133-0.242-0.336-0.268-0.559
	c-0.021-0.641,0.003-1.396,0.161-2.086c0.175-0.756,1.174-5.077,1.174-5.077s-0.292-0.595-0.292-1.474
	c0-1.381,0.784-2.412,1.76-2.412c0.83,0,1.231,0.638,1.231,1.399c0,0.851-0.532,2.125-0.806,3.306
	c-0.229,0.988,0.485,1.793,1.441,1.793c1.729,0,2.893-2.266,2.893-4.952c0-2.041-1.347-3.569-3.797-3.569
	c-2.768,0-4.493,2.107-4.493,4.461c0,0.811,0.234,1.383,0.602,1.827c0.169,0.205,0.193,0.286,0.131,0.521
	c-0.043,0.17-0.144,0.584-0.185,0.746c-0.061,0.235-0.248,0.32-0.457,0.233c-1.275-0.53-1.869-1.956-1.869-3.56
	c0-2.646,2.185-5.819,6.522-5.819c3.482,0,5.775,2.574,5.775,5.337c0,3.654-1.99,6.384-4.921,6.386c-0.986,0-1.913-0.545-2.23-1.162
	c0,0-0.53,2.146-0.642,2.56c-0.189,0.699-0.554,1.398-0.893,1.953c-0.149,0.195-0.304,0.275-0.451,0.289
	c0.98,0.326,2.026,0.51,3.116,0.51c5.447,0,9.863-4.416,9.863-9.863C19.727,4.416,15.311,0,9.863,0z"/>
</svg>
