<?xml version="1.0" encoding="utf-8"?>
<!-- Generator: Adobe Illustrator 16.0.0, SVG Export Plug-In . SVG Version: 6.00 Build 0)  -->
<!DOCTYPE svg PUBLIC "-//W3C//DTD SVG 1.1//EN" "http://www.w3.org/Graphics/SVG/1.1/DTD/svg11.dtd">
<svg version="1.1" id="Layer_1" xmlns="http://www.w3.org/2000/svg" xmlns:xlink="http://www.w3.org/1999/xlink" x="0px" y="0px"
	 width="29.175px" height="29.175px" viewBox="0 0 29.175 29.175" enable-background="new 0 0 29.175 29.175" xml:space="preserve">
<path d="M27.74,1c0.236,0,0.435,0.199,0.435,0.435V27.74c0,0.236-0.198,0.435-0.435,0.435H1.435C1.199,28.175,1,27.977,1,27.74
	V1.435C1,1.199,1.199,1,1.435,1H27.74 M27.74,0H1.435C0.646,0,0,0.646,0,1.435V27.74c0,0.789,0.646,1.435,1.435,1.435H27.74
	c0.789,0,1.435-0.646,1.435-1.435V1.435C29.175,0.646,28.529,0,27.74,0"/>
<path d="M14.588,4.725c-5.447,0-9.863,4.416-9.863,9.863c0,4.21,2.644,7.794,6.357,9.209c-0.139-0.133-0.238-0.337-0.264-0.558
	c-0.021-0.639,0.003-1.396,0.161-2.085c0.175-0.757,1.174-5.077,1.174-5.077s-0.292-0.594-0.292-1.474
	c0-1.381,0.784-2.411,1.76-2.411c0.83,0,1.231,0.637,1.231,1.398c0,0.852-0.532,2.125-0.806,3.305
	c-0.229,0.988,0.485,1.795,1.44,1.795c1.73,0,2.894-2.267,2.894-4.953c0-2.041-1.347-3.569-3.797-3.569
	c-2.768,0-4.493,2.107-4.493,4.461c0,0.811,0.234,1.384,0.602,1.827c0.169,0.205,0.193,0.286,0.131,0.52
	c-0.043,0.172-0.144,0.584-0.185,0.748c-0.061,0.234-0.248,0.319-0.457,0.232C8.906,17.425,8.312,16,8.312,14.397
	c0-2.646,2.185-5.82,6.522-5.82c3.482,0,5.775,2.574,5.775,5.337c0,3.654-1.989,6.384-4.921,6.386c-0.986,0-1.913-0.544-2.23-1.162
	c0,0-0.53,2.146-0.642,2.562c-0.189,0.7-0.554,1.399-0.893,1.952c-0.148,0.193-0.303,0.274-0.448,0.289
	c0.979,0.326,2.024,0.51,3.113,0.51c5.447,0,9.863-4.416,9.863-9.862C24.451,9.141,20.035,4.725,14.588,4.725z"/>
</svg>
