<?xml version="1.0" standalone="no"?>
<!DOCTYPE svg PUBLIC "-//W3C//DTD SVG 1.1//EN" "http://www.w3.org/Graphics/SVG/1.1/DTD/svg11.dtd" >
<svg xmlns="http://www.w3.org/2000/svg" xmlns:xlink="http://www.w3.org/1999/xlink" version="1.1" viewBox="0 -64 512 512">
  <g transform="matrix(1 0 0 -1 0 448)">
   <path fill="currentColor"
d="M256 -64q-106 0 -181 75t-75 181t75 181t181 75t181 -75t75 -181t-75 -181t-181 -75zM256 412q-60 0 -110.5 -29.5t-80 -80t-29.5 -110.5q0 -91 64.5 -155.5t155.5 -64.5t155.5 64.5t64.5 155.5t-64.5 155.5t-155.5 64.5zM391 198l-123 -123q-24 -23 -57.5 -22
t-57.5 24.5t-24.5 58t22.5 58.5l123 122q9 9 23 9t24 -9l70 -70q10 -10 10 -24t-10 -24zM330 255q-17 17 -41.5 17t-41.5 -17t-17 -41.5t17 -41.5t41.5 -17t41.5 17t17 41.5t-17 41.5zM312 190q-10 -10 -23.5 -10t-23 10t-9.5 23.5t9.5 23.5t23 10t23.5 -10t10 -23.5
t-10 -23.5zM231.5 131q5.5 5 5.5 12.5t-5.5 13t-13 5.5t-12.5 -5.5t-5 -13t5 -12.5t12.5 -5t13 5zM263 99.5q5 5.5 5 13t-5 13t-12.5 5.5t-13 -5.5t-5.5 -13t5.5 -13t13 -5.5t12.5 5.5zM200.5 162q5.5 5 5.5 12.5t-5.5 13t-13 5.5t-12.5 -5.5t-5 -13t5 -12.5t12.5 -5t13 5z
M199.5 101.5q11.5 11.5 0 23t-23 0t0 -23t23 0zM227.5 73q11.5 12 0 23.5t-23 0t0 -23.5t23 0zM172 129q-12 -11 -23.5 0.5t0 23t23 0t0.5 -23.5v0z" />
  </g>

</svg>
