<?xml version="1.0" standalone="no"?>
<!DOCTYPE svg PUBLIC "-//W3C//DTD SVG 1.1//EN" "http://www.w3.org/Graphics/SVG/1.1/DTD/svg11.dtd" >
<svg xmlns="http://www.w3.org/2000/svg" xmlns:xlink="http://www.w3.org/1999/xlink" version="1.1" viewBox="0 -64 512 512">
  <g transform="matrix(1 0 0 -1 0 448)">
   <path fill="currentColor"
d="M250 299l20 22l136 -126v-14l-136 -127l-20 21l105 98h-255v29h255zM256 448q106 0 181 -75t75 -181t-75 -181t-181 -75t-181 75t-75 181t75 181t181 75zM256 -35q94 0 160.5 66.5t66.5 160.5t-66.5 160.5t-160.5 66.5t-160.5 -66.5t-66.5 -160.5t66.5 -160.5
t160.5 -66.5z" />
  </g>

</svg>
