<?xml version="1.0" standalone="no"?>
<!DOCTYPE svg PUBLIC "-//W3C//DTD SVG 1.1//EN" "http://www.w3.org/Graphics/SVG/1.1/DTD/svg11.dtd" >
<svg xmlns="http://www.w3.org/2000/svg" xmlns:xlink="http://www.w3.org/1999/xlink" version="1.1" viewBox="0 -64 512 512">
  <g transform="matrix(1 0 0 -1 0 448)">
   <path fill="currentColor"
d="M411 298q5 0 11.5 -0.5t18 -11t11.5 -29.5q-6 -61 -39 -103q-36 -43 -101 -84q-14 -22 -23 -34l-15 -22q2 -18 19 -31h53h13q16 -2 18 -12l4 -24h-118h-12h-118q1 14 3 24q1 4 5.5 7t8.5 4l4 1h13h54q19 15 19 33l-13 20q-16 20 -22 30q-31 19 -57.5 41t-37.5 35l-11 12
q-15 19 -24.5 44.5t-12.5 41.5l-2 17q0 19 10 29.5t20 11.5h11h58q8 8 17 14.5t14 9.5l6 3q14 9 24 18q-18 16 -18 40q0 23 16 38.5t38 15.5t38 -15.5t16 -38.5q0 -12 -4 -20q-3 -11 -12 -20q4 -3 26 -18q19 -10 36 -27h55zM104 200q9 -25 68 -77q-16 32 -25 61.5t-9 42.5
l-1 13q0 16 4 28h-39q-5 0 -7.5 -3.5t-2.5 -6.5l-1 -3q0 -12 3.5 -26t6.5 -21zM408 200q13 27 13 55q0 12 -11 13h-35q3 -9 3 -28q1 -43 -32 -111q54 49 62 71z" />
  </g>

</svg>
