<?xml version="1.0" encoding="utf-8"?>
<!-- Generator: Adobe Illustrator 18.1.1, SVG Export Plug-In . SVG Version: 6.00 Build 0)  -->
<svg version="1.0" id="Layer_1" xmlns="http://www.w3.org/2000/svg" xmlns:xlink="http://www.w3.org/1999/xlink" x="0px" y="0px"
	 viewBox="0 0 1000 1000" enable-background="new 0 0 1000 1000" xml:space="preserve">
<path d="M500.4,0C224.2,0,0.4,223.9,0.4,500s223.9,500,500,500s500-223.9,500-500S776.5,0,500.4,0z M500.4,983
	c-266.8,0-483-216.2-483-483s216.2-483,483-483s483,216.2,483,483S767.1,983,500.4,983z"/>
<g>
	<path d="M420.4,344.7h160c4.7,0,8.5-3.8,8.5-8.5v-19c0-4.7-3.8-8.5-8.5-8.5h-160c-4.7,0-8.5,3.8-8.5,8.5v19
		C411.9,340.8,415.7,344.7,420.4,344.7z"/>
	<path d="M420.4,435.3h160c4.7,0,8.5-3.8,8.5-8.5v-19c0-4.7-3.8-8.5-8.5-8.5h-160c-4.7,0-8.5,3.8-8.5,8.5v19
		C411.9,431.5,415.7,435.3,420.4,435.3z"/>
	<path d="M772.6,469.3h-94.7V239.8c0-16.5-13.5-30-30-30h-295c-16.5,0-30,13.5-30,30v229.5h0h-94.7c-16.5,0-30,13.5-30,30v195
		c0,16.5,13.5,30,30,30h29.7v36c0,16.5,13.5,30,30,30h425c16.5,0,30-13.5,30-30v-36h29.7c16.5,0,30-13.5,30-30v-195
		C802.6,482.8,789.1,469.3,772.6,469.3z M339.9,469.3L339.9,469.3l0-212.5c0-16.5,13.5-30,30-30h261c16.5,0,30,13.5,30,30v212.5h0
		v38.5c0,16.5-13.5,30-30,30h-261c-16.5,0-30-13.5-30-30V469.3z M666.6,723.9H333.9c-6.6,0-12-5.4-12-12l4-39c0-6.6,5.4-12,12-12
		h324.7c6.6,0,12,5.4,12,12l4,39C678.6,718.5,673.2,723.9,666.6,723.9z M742.2,615.8c0,6.6-5.4,12-12,12h-40.7c-6.6,0-12-5.4-12-12
		v-40.7c0-6.6,5.4-12,12-12h40.7c6.6,0,12,5.4,12,12V615.8z"/>
</g>
</svg>
