<?xml version="1.0" standalone="no"?>
<!DOCTYPE svg PUBLIC "-//W3C//DTD SVG 1.1//EN" "http://www.w3.org/Graphics/SVG/1.1/DTD/svg11.dtd" >
<svg xmlns="http://www.w3.org/2000/svg" xmlns:xlink="http://www.w3.org/1999/xlink" version="1.1" viewBox="0 -64 512 512">
  <g transform="matrix(1 0 0 -1 0 448)">
   <path fill="currentColor"
d="M256 448q106 0 181 -75t75 -181t-75 -181t-181 -75t-181 75t-75 181t75 181t181 75zM256 -28q91 0 155.5 64.5t64.5 155.5t-64.5 155.5t-155.5 64.5t-155.5 -64.5t-64.5 -155.5t64.5 -155.5t155.5 -64.5zM364 277q7 0 11.5 -4t4.5 -11v-47v-104q0 -7 -4.5 -11.5
t-11.5 -4.5h-124h-19l-52 -43l-2 -1t-4 -1t-2 2v1v5l7 24l3 13h1h-24q-7 0 -11 4.5t-4 11.5v151q0 7 4 11t11 4h216zM339 150v24h-163v-24h163zM339 200v24h-163v-24h163z" />
  </g>

</svg>
