<?xml version="1.0" encoding="utf-8"?>
<!-- Generator: Adobe Illustrator 18.1.1, SVG Export Plug-In . SVG Version: 6.00 Build 0)  -->
<svg version="1.0" id="Layer_1" xmlns="http://www.w3.org/2000/svg" xmlns:xlink="http://www.w3.org/1999/xlink" x="0px" y="0px"
	 viewBox="0 0 1000 1000" enable-background="new 0 0 1000 1000" xml:space="preserve">
<g>
	<path d="M500,346c-156,0-282.5,126.5-282.5,282.5S344,911,500,911s282.5-126.5,282.5-282.5S656,346,500,346z M500,894
		c-146.6,0-265.5-118.9-265.5-265.5S353.4,363,500,363s265.5,118.9,265.5,265.5S646.6,894,500,894z"/>
	<path d="M500,493.5c-74.6,0-135,60.4-135,135s60.4,135,135,135s135-60.4,135-135S574.6,493.5,500,493.5z M500,746.5
		c-65.2,0-118-52.8-118-118s52.8-118,118-118s118,52.8,118,118S565.2,746.5,500,746.5z"/>
	<path d="M955.5,257h-911c-6.6,0-12,5.4-12,12v681c0,27.5,22.5,50,50,50h835c27.5,0,50-22.5,50-50V269
		C967.5,262.4,962.1,257,955.5,257z M950.5,935.2c0,26.2-21.7,47.7-48.1,47.7H97.6c-26.5,0-48.1-21.5-48.1-47.7V285.4
		c0-6.3,5.2-11.5,11.6-11.5h877.9c6.4,0,11.6,5.2,11.6,11.5V935.2z"/>
	<path d="M917.5,0h-835c-27.5,0-50,22.5-50,50v148c0,6.6,5.4,12,12,12h911c6.6,0,12-5.4,12-12V50C967.5,22.5,945,0,917.5,0z
		 M950.5,183c0,5.5-5.2,10.1-11.6,10.1H61.1c-6.4,0-11.6-4.5-11.6-10.1v-124c0-23,21.7-41.9,48.1-41.9h804.7
		c26.5,0,48.1,18.9,48.1,41.9V183z"/>
	<path d="M112.5,65c-22.1,0-40,17.9-40,40c0,22.1,17.9,40,40,40s40-17.9,40-40C152.5,82.9,134.6,65,112.5,65z M112.5,128
		c-12.7,0-23-10.3-23-23c0-12.7,10.3-23,23-23c12.7,0,23,10.3,23,23C135.5,117.7,125.2,128,112.5,128z"/>
	<path d="M192.5,65c-22.1,0-40,17.9-40,40c0,22.1,17.9,40,40,40s40-17.9,40-40C232.5,82.9,214.6,65,192.5,65z M192.5,128
		c-12.7,0-23-10.3-23-23c0-12.7,10.3-23,23-23c12.7,0,23,10.3,23,23C215.5,117.7,205.2,128,192.5,128z"/>
	<path d="M272.5,65c-22.1,0-40,17.9-40,40c0,22.1,17.9,40,40,40s40-17.9,40-40C312.5,82.9,294.6,65,272.5,65z M272.5,128
		c-12.7,0-23-10.3-23-23c0-12.7,10.3-23,23-23c12.7,0,23,10.3,23,23C295.5,117.7,285.2,128,272.5,128z"/>
	<path d="M352.5,65c-22.1,0-40,17.9-40,40c0,22.1,17.9,40,40,40s40-17.9,40-40C392.5,82.9,374.6,65,352.5,65z M352.5,128
		c-12.7,0-23-10.3-23-23c0-12.7,10.3-23,23-23c12.7,0,23,10.3,23,23C375.5,117.7,365.2,128,352.5,128z"/>
	<path d="M845.5,38c-37,0-67,30-67,67c0,37,30,67,67,67c37,0,67-30,67-67C912.5,68,882.5,38,845.5,38z M845.5,155
		c-27.6,0-50-22.4-50-50c0-27.6,22.4-50,50-50c27.6,0,50,22.4,50,50C895.5,132.7,873.1,155,845.5,155z"/>
	<path d="M845.5,75c-16.6,0-30,13.4-30,30s13.4,30,30,30s30-13.4,30-30S862.1,75,845.5,75z M845.5,118c-7.2,0-13-5.8-13-13
		s5.8-13,13-13c7.2,0,13,5.8,13,13S852.7,118,845.5,118z"/>
</g>
</svg>
