<?xml version="1.0" standalone="no"?>
<!DOCTYPE svg PUBLIC "-//W3C//DTD SVG 1.1//EN" "http://www.w3.org/Graphics/SVG/1.1/DTD/svg11.dtd" >
<svg xmlns="http://www.w3.org/2000/svg" xmlns:xlink="http://www.w3.org/1999/xlink" version="1.1" viewBox="0 -64 512 512">
  <g transform="matrix(1 0 0 -1 0 448)">
   <path fill="currentColor"
d="M239 130q29 -20 39.5 -31.5t10.5 -27.5q0 -21 -18 -34.5t-49 -13.5q-36 0 -58 15t-22 39q0 33 39 47q22 7 47 7q7 0 11 -1zM264 247q0 -20 -12 -32q-14 -13 -31 -13q-26 0 -41.5 26t-15.5 53q0 23 10 35q12 13 32 13q26 0 42 -27t16 -55zM485 448q11 0 19 -8t8 -19v-458
q0 -11 -7.5 -19t-18.5 -8h-460q-10 0 -18 7.5t-8 18.5v460q0 11 8 18.5t19 7.5h458zM198 4q56 0 88.5 25.5t32.5 59.5q0 20 -9.5 33t-28.5 29l-17 13q-11 9 -11 19q0 9 12 22q13 10 19.5 16.5t13 19t6.5 28.5q0 33 -32 59h27l30 18h-95q-55 0 -84 -24q-26 -22 -26 -61
q0 -28 21 -49.5t55 -21.5q4 0 14 1q-4 -11 -4 -17q0 -13 14 -31q-60 -4 -87 -20q-35 -21 -35 -55q0 -27 24.5 -45.5t71.5 -18.5zM442 172v22h-45v45h-23v-45h-45v-22h45v-45h23v45h45z" />
  </g>

</svg>
