<?xml version="1.0" standalone="no"?>
<!DOCTYPE svg PUBLIC "-//W3C//DTD SVG 1.1//EN" "http://www.w3.org/Graphics/SVG/1.1/DTD/svg11.dtd" >
<svg xmlns="http://www.w3.org/2000/svg" xmlns:xlink="http://www.w3.org/1999/xlink" version="1.1" viewBox="0 -64 512 512">
  <g transform="matrix(1 0 0 -1 0 448)">
   <path fill="currentColor"
d="M373 227q58 -21 92 -59t34 -83v-149h-499v149q0 43 32 80.5t87 58.5q-4 23 -4 45q0 74 38.5 126.5t92.5 52.5t92 -52.5t38 -126.5q0 -21 -3 -42zM245.5 417q-41.5 0 -70.5 -43.5t-29 -104.5q0 -21 5 -46l1 -4q13 -54 47 -81l1.5 -1t2.5 -2q4 -2 9 -5q4 -3 9 -4q5 -2 7 -3
q10 -3 18 -3t18 3q1 0 7 3q4 1 9 4t9 5q0 1 4 4q34 28 47 82l1 6q5 22 5 42q0 61 -29.5 104.5t-71 43.5zM468 -33v117q0 35 -27.5 65t-75.5 48q-11 -35 -33 -62v-1q-7 -8 -14 -15h-1q-7 -6 -14 -11q-1 0 -1 -1l-2 -1q-9 -5 -16 -9h-0.5h-1.5q-6 -3 -15 -5q-2 0 -4 -1
q-10 -1 -17.5 -1t-16.5 1q-3 1 -4 1q-9 2 -16 5h-1q-8 3 -16 9q-1 1 -2 1q-7 5 -15 11q-32 29 -48 77q-30 -12 -51.5 -29.5t-33 -38t-11.5 -43.5v-117h437z" />
  </g>

</svg>
