<?xml version="1.0" standalone="no"?>
<!DOCTYPE svg PUBLIC "-//W3C//DTD SVG 1.1//EN" "http://www.w3.org/Graphics/SVG/1.1/DTD/svg11.dtd" >
<svg xmlns="http://www.w3.org/2000/svg" xmlns:xlink="http://www.w3.org/1999/xlink" version="1.1" viewBox="0 -64 512 512">
  <g transform="matrix(1 0 0 -1 0 448)">
   <path fill="currentColor"
d="M256 -64q-106 0 -181 75t-75 181t75 181t181 75t181 -75t75 -181q0 -69 -34.5 -128t-93.5 -93.5t-128 -34.5zM256 432q-99 0 -169.5 -70.5t-70.5 -169.5t70.5 -169.5t169.5 -70.5t169.5 70.5t70.5 169.5q0 49 -19 93.5t-51 76.5t-76.5 51t-93.5 19zM330 226
q31 -11 48.5 -31t17.5 -44v-78h-262v78q0 15 7.5 29t21.5 25.5t34 19.5q-3 12 -3 23q0 39 20.5 66.5t48.5 27.5t48.5 -27.5t20.5 -66.5q0 -11 -2 -22zM263 326q-22 0 -37.5 -23t-15.5 -55q0 -11 3 -24l1 -2q7 -28 25 -43l1 -1q2 -2 5 -3t5 -2q3 -1 4 -2q5 -1 9 -1t9 1
q1 1 4 2q2 1 5 2t5 3l1 1l1 1q18 14 24 43l1 3q3 12 3 22q0 13 -3 25t-7.5 21.5t-11 16.5t-14.5 11t-17 4zM380 89v62q0 12 -6.5 23.5t-19 20.5t-28.5 15q-6 -18 -17 -32h-1v-1q-4 -4 -7 -8h-1q-3 -3 -7 -6h-1l-1 -1q-4 -3 -8 -4h-1q-3 -2 -8 -3h-2q-5 -1 -9 -1t-9 1h-2
q-4 1 -8 3h-1q-4 1 -8 4l-1 1q-5 3 -8 6q-17 15 -25 40q-24 -10 -37.5 -25t-13.5 -33v-62h230z" />
  </g>

</svg>
