<?xml version="1.0" encoding="utf-8"?>
<!-- Generator: Adobe Illustrator 18.1.1, SVG Export Plug-In . SVG Version: 6.00 Build 0)  -->
<svg version="1.0" id="Layer_1" xmlns="http://www.w3.org/2000/svg" xmlns:xlink="http://www.w3.org/1999/xlink" x="0px" y="0px"
	 viewBox="0 0 1000 1000" enable-background="new 0 0 1000 1000" xml:space="preserve">
<path d="M1000,317.5L0,45.5v909l497-113.4c-22.8,13.4-81.4,49.3-86.8,65.2c0,0-7.8,15.2,44.7,7.3c12.2-2.1,34.9-7.2,63.3-13.9
	c74.6-17.8,327-90.6,345.5-99.1c7.2-2.9,10.7-8.1,10.1-13.1c-0.4-3.3-2.9-6.3-8.1-9.2c-0.6-0.3-3.3-1.5-4-1.8
	c-10.4-3.9-30.1-11.7-30.1-11.7l168.5-38.3V317.5z M829.7,785.7c18,4.5,0,10.4,0,10.4s-255.8,70.8-302.6,81.4
	c-15.9,3.6-28.5,6.2-33.6,6.8c-16.2,3.6-13.5-2.3-13.5-2.3c2.2-7.3,62.9-43.3,85.9-56.7L775.8,777
	C796.8,778.3,818.7,783.2,829.7,785.7z M988.1,713.5L37,906.5v-818l951.1,242V713.5z"/>
</svg>
