<?xml version="1.0" standalone="no"?>
<!DOCTYPE svg PUBLIC "-//W3C//DTD SVG 1.1//EN" "http://www.w3.org/Graphics/SVG/1.1/DTD/svg11.dtd" >
<svg xmlns="http://www.w3.org/2000/svg" xmlns:xlink="http://www.w3.org/1999/xlink" version="1.1" viewBox="0 -64 512 512">
  <g transform="matrix(1 0 0 -1 0 448)">
   <path fill="currentColor"
d="M256 365q72 0 122.5 -50.5t50.5 -122.5t-50.5 -122.5t-122.5 -50.5q-28 0 -55 9q5 0 8 5q12 19 16 34l11 45q4 -8 15.5 -14t23.5 -6q19 0 35.5 8.5t27.5 23.5t17.5 35.5t6.5 44.5t-12.5 45.5t-36 34.5t-53.5 13q-53 0 -83.5 -31.5t-30.5 -70.5q0 -48 33 -62q6 -3 8 4
q0 1 0.5 3.5t1.5 5.5t1 4q1 5 -2 9q-11 13 -11 32q0 33 22 56t57 23q31 0 49 -17.5t18 -45.5q0 -36 -14.5 -61.5t-36.5 -25.5q-13 0 -20.5 9.5t-5.5 21.5q2 8 6 20.5t6.5 22t2.5 15.5q0 11 -6 18t-16 7q-8 0 -15.5 -5.5t-11.5 -15t-4 -21.5q0 -7 1.5 -13.5t2.5 -9.5l1 -3
q-17 -76 -20 -89q-4 -16 -3 -37q1 -6 4 -10q-32 13 -57 36.5t-39.5 56.5t-14.5 69q0 72 50.5 122.5t122.5 50.5z" />
  </g>

</svg>
