<?xml version="1.0" encoding="utf-8"?>
<!-- Generator: Adobe Illustrator 19.0.0, SVG Export Plug-In . SVG Version: 6.00 Build 0)  -->
<svg version="1.0" id="Layer_1" xmlns="http://www.w3.org/2000/svg" xmlns:xlink="http://www.w3.org/1999/xlink" x="0px" y="0px"
	 viewBox="0 0 1000 1000" enable-background="new 0 0 1000 1000" xml:space="preserve">
<path id="XMLID_6_" d="M787.3,567.2l19.7-19.7c-6.1-7-14.3-12.5-24.5-16.6c-10.2-4.1-21.4-6.4-33.6-7v-35.8h-24.5v36.7
	c-53.6,7.3-80.4,42.8-80.4,106.6c0,30.3,6.2,54,18.6,71.2c12.4,17.2,33,27.1,61.8,29.7v36.3h24.5v-35.8c11.7-1.5,22.4-3.6,32.1-6.3
	c9.7-2.8,17.4-5.9,22.9-9.4l-7.9-21.8c-6.4,2.9-13.4,5.5-21,7.7c-7.6,2.2-16.3,3.6-26.2,4.1V550.1
	C764.3,551,777.1,556.7,787.3,567.2z M724.4,706c-17.2-3.5-29.3-11.7-36.3-24.7c-7-13-10.5-29.2-10.5-48.7c0-23.6,4-42.1,12-55.5
	c8-13.4,19.6-22,34.7-25.8V706z"/>
<path id="XMLID_15_" d="M736.2,349.8C681.8,199.9,539.5,99.5,379.8,99.5C170.3,99.5,0,269.9,0,479.3
	c0,209.4,170.3,379.8,379.8,379.8c53.7,0,105.8-11.6,155.3-33.9c49.4,46.7,115.9,75.6,189.1,75.6c152,0,275.8-123.7,275.8-275.8
	C1000,477,882.7,356.2,736.2,349.8z M379.8,838.3c-198,0-359-161-359-359c0-198,161-359,359-359c148.4,0,280.9,91.4,334.4,229
	c-3.2,0.1-6.2,0.6-9.4,0.8c-4.4,0.3-8.9,0.6-13.2,1.1c-4.7,0.6-9.4,1.4-14.1,2.2c-4.3,0.7-8.6,1.5-12.8,2.4c-4.6,1-9.2,2.3-13.7,3.5
	c-4.1,1.1-8.2,2.2-12.2,3.5c-4.5,1.5-8.8,3.2-13.2,4.9c-3.9,1.5-7.8,3-11.7,4.6c-4.3,1.9-8.5,4-12.6,6.1c-3.7,1.8-7.4,3.6-11,5.7
	c-4.1,2.3-8,4.8-12,7.3c-3.5,2.2-6.9,4.3-10.3,6.6c-3.9,2.7-7.6,5.6-11.3,8.5c-3.2,2.5-6.4,4.8-9.5,7.4c-3.6,3.1-7,6.3-10.5,9.6
	c-2.9,2.7-5.9,5.4-8.7,8.2c-3.4,3.4-6.5,7-9.6,10.6c-2.6,3-5.3,5.8-7.8,8.9c-3.1,3.7-5.8,7.7-8.7,11.6c-2.3,3.2-4.8,6.3-6.9,9.5
	c-2.7,4.1-5.1,8.3-7.6,12.5c-2,3.3-4.1,6.6-6,10c-2.4,4.4-4.4,9-6.5,13.6c-1.6,3.4-3.4,6.8-4.8,10.3c-1.1,2.7-2.1,5.6-3.1,8.4
	c-2.8-34.3-25.1-55.4-67-72.5c-37.9-15.7-54-27-54-49.7c0-17.4,12.7-37.5,46.2-37.5c27.9,0,45.8,9.6,54.9,14.8l10.9-28.8
	c-12.7-7.4-30.5-14.4-56.6-15.3V296h-27.1v44c-40,6.5-65.8,34-65.8,70.2c0,37.9,27.5,58,71.9,75.4c32.3,13.1,49.3,27.9,49.3,51.8
	c0,24.9-20.9,42.7-51.9,42.7c-24.3,0-47-8.3-62.7-18.7l-10.5,29.2c15.2,10.9,41.4,18.7,66.7,19.2v44h27.4v-45.3
	c24.8-4.1,43-15.9,54.5-31.4c-0.6,3.8-1.2,7.6-1.7,11.4c-0.4,2.9-1,5.7-1.3,8.6c-0.9,9.2-1.4,18.5-1.4,27.9c0,0,0,0.1,0,0.1
	c0,9.1,0.5,18.1,1.4,27c0.3,2.4,0.7,4.7,1,7.1c0.8,6.6,1.7,13.2,3,19.7c0.5,2.3,1.1,4.6,1.6,6.9c1.5,6.5,3.1,12.9,5,19.3
	c0.6,2,1.3,4,2,6c2.1,6.5,4.4,13,7.1,19.3c0.7,1.7,1.5,3.5,2.3,5.2c2.8,6.4,5.8,12.6,9,18.7c0.9,1.7,1.8,3.3,2.7,5
	c3.3,5.9,6.8,11.7,10.6,17.3c1.2,1.8,2.4,3.6,3.6,5.4c3.6,5.2,7.4,10.3,11.4,15.3c1.6,2,3.3,4,5,6c1.8,2.1,3.5,4.4,5.3,6.5
	C474.8,828.7,427.9,838.3,379.8,838.3z M724.2,879.9c-122.9,0-225.8-87.5-249.8-203.4l-0.1-0.2c-1.5-7.2-2.5-14.5-3.3-21.9
	c-0.1-1.2-0.4-2.3-0.5-3.5c-0.9-8.4-1.3-17-1.3-25.6c0-0.1,0-0.2,0-0.3c0-14.2,1.5-28,3.7-41.6c20-120.8,125-213.3,253-213.3h0.2
	h0.3c139.6,1.2,252.9,115,252.9,254.9C979.2,765.5,864.8,879.9,724.2,879.9z"/>
</svg>
