<?xml version="1.0" encoding="utf-8"?>
<!-- Generator: Adobe Illustrator 18.1.1, SVG Export Plug-In . SVG Version: 6.00 Build 0)  -->
<svg version="1.0" id="Layer_1" xmlns="http://www.w3.org/2000/svg" xmlns:xlink="http://www.w3.org/1999/xlink" x="0px" y="0px"
	 viewBox="0 0 1000 1000" enable-background="new 0 0 1000 1000" xml:space="preserve">
<path d="M819.6,813.3c-19,0-34.6,15.6-34.6,34.5c0,19.8,15.6,35.4,34.6,35.4c19,0,34.6-15.6,34.6-35.4
	C854.2,828.9,838.6,813.3,819.6,813.3 M703.5,813.3c-19.8,0-35.4,15.6-35.4,34.5c0,19.8,15.6,35.4,35.4,35.4
	c18.9,0,34.6-15.6,34.6-35.4C738.1,828.9,722.4,813.3,703.5,813.3 M587.3,813.3c-19.7,0-35.4,15.6-35.4,34.5
	c0,19.8,15.7,35.4,35.4,35.4c19,0,34.6-15.6,34.6-35.4C621.9,828.9,606.2,813.3,587.3,813.3 M311.4,477
	c-93.1,0-168.9,75.6-168.9,167.7c0,21.4,4.1,42,11.5,61.7c11.5,27.9,54.4,11.5,43.7-17.3c-5.8-14-9.1-28.8-9.1-44.4
	c0-66.6,55.2-121.7,122.7-121.7c66.7,0,121.9,55.1,121.9,121.7c0,67.4-55.2,122.5-121.9,122.5c-15.7,0-30.5-3.3-44.5-9
	c-28.8-10.7-45.3,32.1-17.3,43.6c19.8,7.4,40.4,11.5,61.8,11.5c92.2,0,168-75.7,168-168.6C479.4,552.6,403.6,477,311.4,477
	 M311.4,421.9c76.6,0,139.2-62.5,139.2-139.8c0-76.5-62.6-139-139.2-139c-17.3,0-34.7,3.3-51.1,9.9c-28.8,10.7-11.5,54.3,17.3,42.8
	c10.7-4.1,22.2-6.6,33.8-6.6c51,0,92.2,41.9,92.2,93c0,51.8-41.2,92.8-92.2,92.8c-51.9,0-93.1-41.1-93.1-92.8
	c0-11.6,1.6-22.3,6.6-33.8c10.7-28-32.9-45.2-43.7-16.5c-6.5,16.5-9.9,32.9-9.9,50.2C171.3,359.4,233.9,421.9,311.4,421.9
	 M703.5,421.9c76.6,0,139.2-62.5,139.2-139.8c0-17.3-3.3-33.8-9.9-50.2c-10.7-28.7-54.3-11.5-42.8,16.5c4.1,11.5,6.6,22.2,6.6,33.8
	c0,51.8-42,92.8-93.1,92.8c-51.1,0-93.1-41.1-93.1-92.8c0-51.1,42-93,93.1-93c11.5,0,23.1,2.5,33.8,6.6
	c28.8,11.5,45.3-32.1,16.5-42.8c-15.6-6.6-33-9.9-50.2-9.9c-77.4,0-139.2,62.5-139.2,139C564.2,359.4,626,421.9,703.5,421.9
	 M703.5,523c51.1,0,93.1,41.9,93.1,92.9c0,11.5-2.5,23-6.6,33.7c-11.5,28.8,32.1,45.2,42.8,17.3c6.6-16.5,9.9-33.8,9.9-51
	c0-76.5-62.6-139-139.2-139c-77.4,0-139.2,62.5-139.2,139c0,76.5,61.8,139,139.2,139c17.3,0,34.6-3.2,50.2-9
	c28.8-11.5,11.5-54.3-16.5-43.6c-10.7,4.1-22.3,6.6-33.8,6.6c-51.1,0-93.1-41.9-93.1-92.9C610.4,564.9,652.4,523,703.5,523
	 M877.3,0.8H121.9C55.2,0.8,0,55.9,0,122.5v754.9c0,66.6,55.2,121.7,121.9,121.7h755.4c67.5,0,122.7-55.1,122.7-121.7V122.5
	C1000,55.9,944.8,0.8,877.3,0.8 M930,877.5c0,28.8-23.1,51.8-52.7,51.8H121.9c-28.8,0-51.9-23-51.9-51.8V122.5
	c0-28.8,23.1-51.8,51.9-51.8h755.4c29.6,0,52.7,23,52.7,51.8V877.5z"/>
</svg>
