<?xml version="1.0" encoding="utf-8"?>
<!-- Generator: Adobe Illustrator 18.1.1, SVG Export Plug-In . SVG Version: 6.00 Build 0)  -->
<svg version="1.0" id="Layer_1" xmlns="http://www.w3.org/2000/svg" xmlns:xlink="http://www.w3.org/1999/xlink" x="0px" y="0px"
	 viewBox="0 0 1000 1000" enable-background="new 0 0 1000 1000" xml:space="preserve">
<g>
	<path d="M888,0H112C79.3,0,52.8,26.5,52.8,59.2v181.9c0,0.1,0,0.1,0,0.2v699.6c0,32.6,26.5,59.2,59.2,59.2H888
		c32.6,0,59.2-26.6,59.2-59.2V758.9c0-0.1,0-0.1,0-0.1V59.2C947.2,26.5,920.7,0,888,0z M916.3,940.8c0,15.6-12.7,28.3-28.3,28.3H112
		c-15.6,0-28.3-12.7-28.3-28.3V758.9c0,0,0-0.1,0-0.1V248.9h832.6V940.8z M916.3,218H83.7V59.2c0-15.6,12.7-28.2,28.2-28.2H888
		c15.6,0,28.3,12.7,28.3,28.2V218z"/>
	<path d="M751.4,441H248.6c-32.6,0-59.2,26.6-59.2,59.2v338.8c0,32.6,26.5,59.2,59.2,59.2h502.8c32.6,0,59.2-26.5,59.2-59.2V500.2
		C810.6,467.6,784,441,751.4,441z M779.7,839.1c0,15.6-12.7,28.3-28.3,28.3H248.6c-15.6,0-28.3-12.7-28.3-28.3V500.2
		c0-15.6,12.6-28.3,28.3-28.3h502.8c15.6,0,28.3,12.7,28.3,28.3V839.1z"/>
	<path d="M308.4,67.3c-32,0-58.1,26-58.1,58c0,32,26,58.1,58.1,58.1c32,0,58-26,58-58.1C366.4,93.3,340.4,67.3,308.4,67.3z
		 M308.4,152.5c-15,0-27.2-12.2-27.2-27.1c0-14.9,12.2-27.1,27.2-27.1c14.9,0,27.1,12.2,27.1,27.1
		C335.5,140.3,323.4,152.5,308.4,152.5z"/>
	<path d="M691.6,67.3c-32,0-58,26-58,58c0,32,26,58.1,58,58.1c32,0,58-26,58-58.1C749.6,93.3,723.6,67.3,691.6,67.3z M691.6,152.5
		c-14.9,0-27.2-12.2-27.2-27.1c0-14.9,12.2-27.1,27.2-27.1c14.9,0,27.1,12.2,27.1,27.1C718.7,140.3,706.6,152.5,691.6,152.5z"/>
	<path d="M558.8,71.4H441.2c-19.1,0-34.7,15.5-34.7,34.7v38.4c0,19.1,15.6,34.7,34.7,34.7h117.6c19.1,0,34.7-15.6,34.7-34.7v-38.4
		C593.5,87,577.9,71.4,558.8,71.4z M562.6,144.5c0,2.1-1.7,3.8-3.8,3.8H441.2c-2.1,0-3.7-1.7-3.7-3.8v-38.4c0-2.1,1.7-3.7,3.7-3.7
		h117.6c2,0,3.8,1.7,3.8,3.7V144.5z"/>
	<path d="M168.2,386.2c18.6,0,34.5-11.7,40.8-28.1h584.7c0.6,0,1.2,0,1.7-0.1c6.2,16.5,22.2,28.2,40.8,28.2
		c24,0,43.6-19.5,43.6-43.6c0-24.1-19.6-43.6-43.6-43.6c-18.6,0-34.6,11.8-40.8,28.2c-0.6-0.1-1.2-0.1-1.8-0.1H208.9
		c-6.2-16.4-22.1-28.1-40.8-28.1c-24,0-43.6,19.5-43.6,43.6C124.6,366.6,144.1,386.2,168.2,386.2z M836.2,329.9
		c7,0,12.7,5.7,12.7,12.7c0,7-5.7,12.7-12.7,12.7c-7,0-12.7-5.7-12.7-12.7C823.5,335.6,829.1,329.9,836.2,329.9z M168.2,329.9
		c7,0,12.8,5.7,12.8,12.7c0,7-5.8,12.7-12.8,12.7c-7,0-12.7-5.7-12.7-12.7C155.5,335.6,161.2,329.9,168.2,329.9z"/>
</g>
</svg>
