<?xml version="1.0" encoding="utf-8"?>
<!-- Generator: Adobe Illustrator 18.1.1, SVG Export Plug-In . SVG Version: 6.00 Build 0)  -->
<svg version="1.0" id="Layer_1" xmlns="http://www.w3.org/2000/svg" xmlns:xlink="http://www.w3.org/1999/xlink" x="0px" y="0px"
	 viewBox="0 0 1000 1000" enable-background="new 0 0 1000 1000" xml:space="preserve">
<path d="M864,347.3c-16.5,0-29.7,13.2-29.7,28.8c0,16.5,13.2,29.7,29.7,29.7c15.6,0,28.8-13.2,28.8-29.7
	C892.8,360.5,879.6,347.3,864,347.3 M864,434.6c-16.5,0-29.7,13.2-29.7,28.8c0,16.5,13.2,28.8,29.7,28.8c15.6,0,28.8-12.3,28.8-28.8
	C892.8,447.7,879.6,434.6,864,434.6 M864,521.8c-16.5,0-29.7,13.2-29.7,28.8c0,16.5,13.2,28.8,29.7,28.8c15.6,0,28.8-12.3,28.8-28.8
	C892.8,535,879.6,521.8,864,521.8 M864,609.1c-16.5,0-29.7,12.3-29.7,28.8c0,15.6,13.2,28.8,29.7,28.8c15.6,0,28.8-13.2,28.8-28.8
	C892.8,621.4,879.6,609.1,864,609.1 M878,37H122C54.4,37,0,91.4,0,158.8v682.3C0,908.6,54.4,963,122,963h756
	c67.6,0,122-54.3,122-121.8V158.8C1000,91.4,945.6,37,878,37 M930.7,841.2c0,28.8-23.9,51.9-52.8,51.9H122
	c-28.8,0-51.9-23.1-51.9-51.9V158.8c0-28.8,23.1-52.7,51.9-52.7h756c28.9,0,52.8,23.9,52.8,52.7V841.2z M168.2,399.2l-5.8,5.8
	c-21.4,21.4,11.6,54.3,33,32.9l5.8-5.8c48.6,33.8,112.9,33.8,161.6,0l5.8,5.8c21.4,21.4,54.4-11.5,33-32.9l-5.8-5.8
	c34.7-48.6,34.7-112.8,0-161.3l5.8-5.7c21.4-21.4-11.6-54.3-33-32.9l-5.8,5.8c-48.6-34.6-113-34.6-161.6,0l-5.8-5.8
	c-21.4-21.4-54.4,11.5-33,32.9l5.8,5.7C134.4,286.4,134.4,350.6,168.2,399.2 M202,271.6l12.3,11.5c21.4,22.2,54.4-10.7,33-32.1
	L235,238.7c29.7-17.3,64.3-17.3,94,0L316.6,251c-21.4,21.4,11.5,54.3,33,32.1l12.3-11.5c17.3,29.6,17.3,64.1,0,93.8l-12.3-12.3
	c-21.4-21.4-54.4,11.5-33,32.9l12.3,12.3c-29.7,17.3-64.3,17.3-94,0l12.4-12.3c21.4-21.4-11.6-54.3-33-32.9L202,365.4
	C184.7,335.8,184.7,301.2,202,271.6 M744.5,237.9l5.8-5.7c21.4-21.4-11.5-54.3-33-32.9l-5.7,5.8c-47.8-34.6-113-34.6-160.8,0
	l-5.7-5.8c-22.3-21.4-55.3,11.5-33,32.9l5.8,5.7c-34.6,48.6-34.6,112.7,0,161.3l-5.8,5.8c-22.2,21.4,10.8,54.3,33,32.9l5.7-5.8
	c47.8,33.8,113,33.8,160.8,0l5.7,5.8c21.5,21.4,54.4-11.5,33-32.9l-5.8-5.8C779.1,350.6,779.1,286.4,744.5,237.9 M710.7,365.4
	l-11.5-12.3c-9.1-9.1-23.9-9.1-33,0c-9.1,9.1-9.1,23.8,0,32.9l11.6,12.3c-28.9,17.3-64.4,17.3-94.1,0l12.4-12.3
	c21.4-21.4-11.6-54.3-33-32.9l-12.4,12.3c-17.3-29.7-17.3-64.2,0-93.8l12.4,11.5c21.4,22.2,54.4-10.7,33-32.1l-12.4-12.3
	c29.7-17.3,65.2-17.3,94.1,0L666.1,251c-21.4,21.4,11.6,54.3,33,32.1l11.5-11.5C728.7,301.2,728,335.8,710.7,365.4 M405.6,605
	l5.7-5.7c21.4-21.4-10.7-54.3-33-32.9l-5.8,5.7c-53.6-39.5-127.8-39.5-181.3,0l-5.8-5.7c-22.2-21.4-54.4,11.5-33,32.9l5.8,5.7
	c-39.5,54.3-39.5,127.6,0,181.9l-5.8,5.8c-21.4,21.4,11.6,54.3,33,32.9l5.8-5.8c53.6,39.5,127.8,39.5,181.3,0l5.8,5.8
	c21.4,21.4,54.4-11.5,33-32.9l-5.7-5.8C446,732.5,446,659.3,405.6,605 M372.6,753.9l-12.3-13.2c-9.1-9.1-23.9-9.1-33,0
	c-9,9.1-9,23.9,0,32.9l12.4,12.3c-34.6,23.1-80,23.1-115.4,0.8l12.3-13.2c21.4-21.4-11.5-54.3-33-32.9l-12.4,13.2
	c-22.2-35.4-22.2-80.7,0-115.3l12.4,12.4c22.3,21.4,54.4-11.5,33-32.9l-12.3-12.3c35.4-23.1,79.9-23.1,115.4,0l-12.4,12.3
	c-21.4,21.4,11.6,54.3,33,32.9l12.3-12.4C394.9,673.2,394.9,718.6,372.6,753.9 M732.9,614.8l5.8-5.8c21.4-21.4-11.6-54.3-33-32.9
	l-5.7,5.8c-42.1-28.8-98.9-28.8-141,0l-5.7-5.8c-21.4-21.4-54.4,11.5-33,32.9l5.8,5.8c-28.8,42-28.8,98.8,0,140.8l-5.8,5.8
	c-21.4,21.4,11.5,54.3,33,32.9l5.7-5.7c42.1,28.8,98.9,28.8,141,0c23.9,23.9,56.9-9.1,33-32.9C761.7,712.8,761.7,657.6,732.9,614.8
	 M698.3,721.8c-21.4-15.7-47.8,10.7-32.2,32.1c-23.1,12.3-49.4,13.2-73.4,0c23.9-23.1-9.1-56-32.2-32.1c-12.3-23.9-12.3-49.4,0-73.2
	c23.1,23.9,56.1-9.1,32.2-32.1c23.9-12.3,49.4-12.3,73.4,0c-23.9,23.1,9.1,56,32.2,32.1C711.5,672.4,710.7,698.8,698.3,721.8"/>
</svg>
