<?xml version="1.0" standalone="no"?>
<!DOCTYPE svg PUBLIC "-//W3C//DTD SVG 1.1//EN" "http://www.w3.org/Graphics/SVG/1.1/DTD/svg11.dtd" >
<svg xmlns="http://www.w3.org/2000/svg" xmlns:xlink="http://www.w3.org/1999/xlink" version="1.1" viewBox="0 -64 512 512">
  <g transform="matrix(1 0 0 -1 0 448)">
   <path fill="currentColor"
d="M175 412q64 0 101 -42t37 -106q0 -36 -34.5 -103t-69.5 -116l-34 -49q-6 8 -15.5 21t-33.5 49.5t-42 69t-33 69.5t-15 59q0 64 37.5 106t101.5 42zM175 448q-78 0 -126.5 -51.5t-48.5 -132.5q0 -30 18 -75.5t46.5 -92t47 -73.5t34.5 -48l29 -39l28 39q16 21 34.5 48
t47 73.5t46.5 92t18 75.5q0 81 -48.5 132.5t-125.5 51.5v0zM175 215q30 0 52 21.5t22 52.5t-22 53t-52.5 22t-52.5 -22t-22 -53t22 -52.5t53 -21.5v0z" />
  </g>

</svg>
