<?xml version="1.0" standalone="no"?>
<!DOCTYPE svg PUBLIC "-//W3C//DTD SVG 1.1//EN" "http://www.w3.org/Graphics/SVG/1.1/DTD/svg11.dtd" >
<svg xmlns="http://www.w3.org/2000/svg" xmlns:xlink="http://www.w3.org/1999/xlink" version="1.1" viewBox="0 -64 512 512">
  <g transform="matrix(1 0 0 -1 0 448)">
   <path fill="currentColor"
d="M256 -64q-106 0 -181 75t-75 181t75 181t181 75t181 -75t75 -181q0 -69 -34.5 -128t-93.5 -93.5t-128 -34.5zM256 412q-91 0 -155.5 -64.5t-64.5 -155.5t64.5 -155.5t155.5 -64.5t155.5 64.5t64.5 155.5t-64.5 155.5t-155.5 64.5zM257 294q-45 0 -76.5 -25t-31.5 -60
q0 -33 28 -57q-1 -33 -14 -45q24 0 54 23q19 -6 40 -6q45 0 76.5 25t31.5 60t-31.5 60t-76.5 25v0z" />
  </g>

</svg>
