<?xml version="1.0" standalone="no"?>
<!DOCTYPE svg PUBLIC "-//W3C//DTD SVG 1.1//EN" "http://www.w3.org/Graphics/SVG/1.1/DTD/svg11.dtd" >
<svg xmlns="http://www.w3.org/2000/svg" xmlns:xlink="http://www.w3.org/1999/xlink" version="1.1" viewBox="0 -64 513 512">
  <g transform="matrix(1 0 0 -1 0 448)">
   <path fill="currentColor"
d="M503 40q8 -8 9 -19t-7 -19l-47 -47q-8 -7 -19 -6.5t-19 9.5l-111 124q-50 -33 -109 -33q-82 0 -140.5 58.5t-58.5 141t58.5 141t141 58.5t141 -58.5t58.5 -140.5q0 -50 -24 -95zM200 111q57 0 97.5 40.5t40.5 97.5t-40.5 97.5t-97.5 40.5t-97 -40.5t-40 -97.5t40 -97.5
t97 -40.5z" />
  </g>

</svg>
