<?xml version="1.0" standalone="no"?>
<!DOCTYPE svg PUBLIC "-//W3C//DTD SVG 1.1//EN" "http://www.w3.org/Graphics/SVG/1.1/DTD/svg11.dtd" >
<svg xmlns="http://www.w3.org/2000/svg" xmlns:xlink="http://www.w3.org/1999/xlink" version="1.1" viewBox="0 -64 512 512">
  <g transform="matrix(1 0 0 -1 0 448)">
   <path fill="currentColor"
d="M383 112q37 0 62.5 -25.5t25.5 -62t-25.5 -62t-62 -25.5t-62 25.5t-25.5 61.5q0 11 4 24l-147 91q-27 -31 -66 -31q-36 0 -61.5 25.5t-25.5 61.5t25.5 62t61.5 26t61 -26l152 80q-4 12 -4 23q0 36 25.5 61.5t62 25.5t62 -25.5t25.5 -62t-25.5 -62t-62.5 -25.5
q-40 0 -66 32l-148 -79q5 -15 5 -30q0 -10 -3 -23l147 -91q26 31 65 31zM383.5 409q-20.5 0 -35 -14.5t-14.5 -35t14.5 -35t35 -14.5t35 14.5t14.5 35t-14.5 35t-35 14.5zM87.5 146q20.5 0 35 14.5t14.5 35t-14.5 35t-35 14.5t-35 -14.5t-14.5 -35t14.5 -35t35 -14.5z
M383.5 -25q20.5 0 35 14.5t14.5 35t-14.5 35t-35 14.5t-35 -14.5t-14.5 -35t14.5 -35t35 -14.5z" />
  </g>

</svg>
