<?xml version="1.0" standalone="no"?>
<!DOCTYPE svg PUBLIC "-//W3C//DTD SVG 1.1//EN" "http://www.w3.org/Graphics/SVG/1.1/DTD/svg11.dtd" >
<svg xmlns="http://www.w3.org/2000/svg" xmlns:xlink="http://www.w3.org/1999/xlink" version="1.1" viewBox="0 -64 512 512">
  <g transform="matrix(1 0 0 -1 0 448)">
   <path fill="currentColor"
d="M336 124l39 117h-188l-22 52h-60v-21h47l62 -148h122zM227 144l-32 77h152l-26 -77h-94zM308 102q-6 0 -11.5 -3.5t-9 -9t-3.5 -12t3.5 -12t9 -9t11.5 -3.5q10 0 17.5 7t7.5 17.5t-7.5 17.5t-17.5 7zM229 102q-10 0 -17 -7t-7 -18q0 -6 3 -11.5t8.5 -9t12.5 -3.5
q10 0 17 7t7 17.5t-7 17.5t-17 7zM256 -64q-106 0 -181 75t-75 181q0 52 20.5 99.5t54.5 81.5t81.5 54.5t99.5 20.5q69 0 128 -34.5t93.5 -93.5t34.5 -128q0 -106 -75 -181t-181 -75zM256 432q-99 0 -169.5 -70.5t-70.5 -169.5t70.5 -169.5t169.5 -70.5t169.5 70.5
t70.5 169.5q0 49 -19 93.5t-51 76.5t-76.5 51t-93.5 19v0z" />
  </g>

</svg>
