<?xml version="1.0" standalone="no"?>
<!DOCTYPE svg PUBLIC "-//W3C//DTD SVG 1.1//EN" "http://www.w3.org/Graphics/SVG/1.1/DTD/svg11.dtd" >
<svg xmlns="http://www.w3.org/2000/svg" xmlns:xlink="http://www.w3.org/1999/xlink" version="1.1" viewBox="0 -64 512 512">
  <g transform="matrix(1 0 0 -1 0 448)">
   <path fill="currentColor"
d="M188 170q-28 -11 -25 -26t22 -14h201q7 0 12 -5t5 -12v-1v-4q2 -31 -14 -47q-12 -13 -33 -13q-17 0 -28.5 13t-12.5 35h-50q-1 -22 -13 -35q-13 -13 -33 -13q-18 0 -29 13t-13 36q-39 4 -47 39q-9 38 34 61l-61 204l-68 10l-4 -5q-4 -6 -11 -7.5t-12.5 2.5t-7 11t2.5 13
l16 23l111 -16l18 -62h364l-65 -200h-259zM234 78q6 6 7 18h-40q3 -24 18 -24q10 0 15 6zM356 72q10 0 16 6t7 18h-40q2 -24 17 -24zM434 196l10 29q-5 4 -11 4h-22q-7 0 -12 -5t-5 -12t5 -12t12 -5h22l0.5 0.5zM403 312q7 0 12 5t5 12t-5 12t-12 5h-22q-7 0 -12 -5t-5 -12
t5 -12t12 -5h22zM434 288h-21q-7 0 -12 -5t-5 -12t5 -12t12 -5h21q3 0 6 1t5.5 3.5t4 5.5t1.5 7q0 7 -5 12t-12 5zM190 228l10 -33h5q7 0 12 5t5 12t-5 12t-12 5h-10q-2 0 -5 -1zM242 212q0 -7 5 -12t12 -5h22q7 0 12 5t5 12t-5 12t-12 5h-22q-7 0 -12 -5t-5 -12zM318 212
q0 -7 5 -12t12 -5h22q7 0 12 5t5 12t-5 12t-12 5h-22q-7 0 -12 -5t-5 -12zM378 271q0 7 -5 12t-12 5h-21q-7 0 -12 -5t-5 -12q0 -5 2.5 -9t6.5 -6t8 -2h21q3 0 6.5 1t5.5 3.5t3.5 5.5t1.5 7zM327 312q4 0 7 1.5t5 3.5t3.5 5.5t1.5 6.5q0 5 -2 9t-6 6t-9 2h-22q-7 0 -12 -5
t-5 -12q0 -4 2.5 -8t6.5 -6.5t8 -2.5h22zM305 271q0 7 -5 12t-12 5h-21q-7 0 -12 -5t-5 -12t5 -12t12 -5h21q7 0 12 5t5 12zM251 312q5 0 8.5 2.5t6 6.5t2.5 8q0 7 -5 12t-12 5h-22q-7 0 -12 -5t-5 -12q0 -4 2.5 -8t6.5 -6.5t8 -2.5h22zM216 288h-21q-7 0 -12 -5t-5 -12
v-1.5v-1.5l2 -5q5 -9 15 -9h21q7 0 11.5 5t4.5 12t-4.5 12t-11.5 5zM175 312q7 0 12 5t5 12t-5 12t-12 5h-10q-5 0 -9 -3l9 -31h10zM468 312h-10q-7 0 -12 5t-5 12t5 12t12 5h10q8 0 13 -7l-9 -26q-3 -1 -4 -1v0z" />
  </g>

</svg>
