<?xml version="1.0" encoding="utf-8"?>
<!-- Generator: Adobe Illustrator 18.1.1, SVG Export Plug-In . SVG Version: 6.00 Build 0)  -->
<svg version="1.0" id="Layer_1" xmlns="http://www.w3.org/2000/svg" xmlns:xlink="http://www.w3.org/1999/xlink" x="0px" y="0px"
	 viewBox="0 0 1000 1000" enable-background="new 0 0 1000 1000" xml:space="preserve">
<path fill="#010101" d="M500,0C223.9,0,0,223.8,0,500c0,276.2,223.9,500,500,500c276.1,0,500-223.9,500-500
	C1000,223.8,776.1,0,500,0z M500,972.3C239.6,972.3,27.7,760.4,27.7,500C27.7,239.5,239.6,27.7,500,27.7
	c260.5,0,472.3,211.8,472.3,472.2C972.3,760.4,760.5,972.3,500,972.3z"/>
<path fill-rule="evenodd" clip-rule="evenodd" fill="#010101" d="M738.5,508.2c21.9,0,39.7-19,39.7-42.5c0-33-10.3-56.1-64.6-57.6
	H606.5c-13.7,0-33.2-3.3-24.8-26.6l21.7-46.8c0,0,2.8-4.7,4.2-18.1c1.8-16.4,2.2-43.6-9.1-64.1c-11.4-20.6-20.8-29.5-42.7-29.5
	c-18.4,0-33.9,13.4-38.3,31.5l-1.7,6.1c-25.5,86.9-59.1,104.5-144.3,155.7l-0.9,243.6c84.3,40.9,113.2,57.8,211.1,70.8
	c42,5.6,67.5,11.1,96.4,9.7c12.2-0.6,28.4-5.1,35.2-10.6c9.4-7.8,16.1-18.4,15.5-33.7c-0.5-8.9-8.6-17.2-13.4-18h3.5
	c21.9,0,39.7-19,39.7-42.5c0-23.5-17.8-42.5-39.7-42.5h19.9c21.9,0,39.7-19,39.7-42.5S760.5,508.2,738.5,508.2z"/>
<path fill-rule="evenodd" clip-rule="evenodd" fill="#010101" d="M324.2,407.4h-91.5c-5.5,0-9.9,4.8-9.9,10.6v274.4
	c0,5.9,4.4,10.6,9.9,10.6h91.5c5.5,0,9.9-4.7,9.9-10.6V418C334.1,412.1,329.7,407.4,324.2,407.4z"/>
</svg>
