<?xml version="1.0" standalone="no"?>
<!DOCTYPE svg PUBLIC "-//W3C//DTD SVG 1.1//EN" "http://www.w3.org/Graphics/SVG/1.1/DTD/svg11.dtd" >
<svg xmlns="http://www.w3.org/2000/svg" xmlns:xlink="http://www.w3.org/1999/xlink" version="1.1" viewBox="-1 -64 513 512">
  <g transform="matrix(1 0 0 -1 0 448)">
   <path fill="currentColor"
d="M256 -64q-68 0 -128 34q-92 54 -119.5 156t25.5 194q35 59 94.5 93.5t127.5 34.5t128 -34q92 -53 119.5 -155.5t-25.5 -194.5q-35 -59 -94.5 -93.5t-127.5 -34.5zM256.5 412q-58.5 0 -110 -29.5t-80.5 -80.5q-46 -79 -22 -167t102 -133q51 -29 109.5 -29t110 29.5
t80.5 79.5q46 79 22 167t-102 133q-51 30 -109.5 30zM256.5 312q12.5 0 24.5 -3l19 34l60 -33l-19 -34q21 -21 29 -50h40v-68h-40q-8 -29 -29 -50l19 -34l-60 -33l-19 34q-13 -2 -25 -2t-25 2l-19 -34l-60 33l19 34q-21 21 -30 50h-39v68h39q9 29 30 50l-19 34l60 33l19 -34
q13 3 25.5 3zM317 195q0 27 -19 46t-46 19t-46 -19t-19 -46t19 -46t46 -19t46 19t19 46zM252 231q15 0 25.5 -10.5t10.5 -25.5t-10.5 -25.5t-25.5 -10.5t-25.5 10.5t-10.5 25.5t10.5 25.5t25.5 10.5v0z" />
  </g>

</svg>
