<?xml version="1.0" standalone="no"?>
<!DOCTYPE svg PUBLIC "-//W3C//DTD SVG 1.1//EN" "http://www.w3.org/Graphics/SVG/1.1/DTD/svg11.dtd" >
<svg xmlns="http://www.w3.org/2000/svg" xmlns:xlink="http://www.w3.org/1999/xlink" version="1.1" viewBox="0 -64 512 512">
  <g transform="matrix(1 0 0 -1 0 448)">
   <path fill="currentColor"
d="M267 203h36l-29 -22l11 -34l-29 21l-29 -21l11 34l-29 22h36l11 34zM59 203h36l-29 -22l11 -34l-30 21l-29 -21l11 34l-29 22h36l11 34zM163 203h36l-29 -22l11 -34l-29 21l-30 -21l12 34l-30 22h37l11 34zM512 203l-29 -22l11 -34l-29 21l-30 -21l11 34l-29 22h36l12 34
l11 -34h36zM371 203h37l-30 -22l12 -34l-30 21l-29 -21l11 34l-29 22h36l11 34z" />
  </g>

</svg>
