<?xml version="1.0" standalone="no"?>
<!DOCTYPE svg PUBLIC "-//W3C//DTD SVG 1.1//EN" "http://www.w3.org/Graphics/SVG/1.1/DTD/svg11.dtd" >
<svg xmlns="http://www.w3.org/2000/svg" xmlns:xlink="http://www.w3.org/1999/xlink" version="1.1" viewBox="0 -64 512 512">
  <g transform="matrix(1 0 0 -1 0 448)">
   <path fill="currentColor"
d="M510 197q0 22 -7.5 40.5t-20 31t-27.5 16.5l-1 1q-8 28 -20.5 53t-35 51.5t-59 42t-82.5 15.5h-4q-37 0 -68.5 -11t-52 -27.5t-37 -39.5t-25 -42.5t-15.5 -41.5v-1q-24 -6 -39.5 -30.5t-15.5 -57.5q0 -37 20 -63.5t49 -26.5q15 0 30 10v139q2 19 6.5 36t15.5 39.5t27 39
t43 27.5t62 11h4q29 0 53 -7.5t39.5 -21t27.5 -29t18.5 -34t10 -32.5t5.5 -29v-139q1 -1 2.5 -1.5t2.5 -0.5q-7 -36 -34.5 -66t-74.5 -43l-1 1q-13 23 -40 23q-20 0 -34 -13.5t-14 -33t14 -33.5t34 -14q8 0 16 3t14 8t10 12t6 15q59 14 92.5 51.5t42.5 82.5h1q26 4 44 29.5
t18 59.5v0zM255 355q-40 0 -68 -28.5t-28 -67.5v-65q0 -39 25 -68.5t62 -32.5q4 -1 9 -1q39 0 67.5 28t28.5 68v65q0 25 -11.5 47.5t-31.5 37t-44 16.5q-5 1 -9 1v0z" />
  </g>

</svg>
