<?xml version="1.0" standalone="no"?>
<!DOCTYPE svg PUBLIC "-//W3C//DTD SVG 1.1//EN" "http://www.w3.org/Graphics/SVG/1.1/DTD/svg11.dtd" >
<svg xmlns="http://www.w3.org/2000/svg" xmlns:xlink="http://www.w3.org/1999/xlink" version="1.1" viewBox="0 -64 512 512">
  <g transform="matrix(1 0 0 -1 0 448)">
   <path fill="currentColor"
d="M256 -64q-106 0 -181 75t-75 181t75 181t181 75q69 0 128 -34.5t93.5 -93.5t34.5 -128q0 -106 -75 -181t-181 -75zM256 412q-91 0 -155.5 -64.5t-64.5 -155.5t64.5 -155.5t155.5 -64.5t155.5 64.5t64.5 155.5t-64.5 155.5t-155.5 64.5zM418 180q0 -11 -3 -21t-8.5 -17.5
t-12.5 -12t-16 -5.5q-5 -28 -26.5 -52t-58.5 -32q-2 -11 -10 -17.5t-19 -6.5q-12 0 -21 8.5t-9 21t9 21t21 8.5q17 0 26 -15q30 7 47 26.5t22 41.5q-1 0 -2 0.5l-1 0.5v88q-2 11 -4.5 22t-9.5 25.5t-17 24.5t-27.5 17.5t-38.5 7.5h-3q-27 0 -46.5 -10.5t-29.5 -27
t-14.5 -30.5t-6.5 -29v-88q-9 -6 -19 -6q-18 0 -30.5 17t-12.5 40q0 21 10 36.5t25 19.5q5 17 13 32.5t22 32.5t37 27t52 10h3q29 0 52 -10t37 -27t22 -32.5t13 -32.5q7 -2 13.5 -7t11 -12.5t7.5 -17t3 -19.5zM330 174v45q0 19 -10 36t-26.5 26.5t-36.5 9.5q-30 0 -51 -21
t-21 -51v-45q0 -30 21 -51t51 -21t51.5 21t21.5 51v0z" />
  </g>

</svg>
