<?xml version="1.0" encoding="utf-8"?>
<!-- Generator: Adobe Illustrator 18.1.1, SVG Export Plug-In . SVG Version: 6.00 Build 0)  -->
<svg version="1.0" id="Layer_1" xmlns="http://www.w3.org/2000/svg" xmlns:xlink="http://www.w3.org/1999/xlink" x="0px" y="0px"
	 viewBox="0 0 1000 1000" enable-background="new 0 0 1000 1000" xml:space="preserve">
<g>
	<g>
		<path d="M776.3,29.5c-37,0-67,30-67,67c0,37,30,67,67,67c37,0,67-30,67-67C843.3,59.5,813.4,29.5,776.3,29.5z M776.3,146.5
			c-27.6,0-50-22.4-50-50c0-27.6,22.4-50,50-50c27.6,0,50,22.4,50,50C826.3,124.1,804,146.5,776.3,146.5z"/>
		<path d="M620.3,29.5c-37,0-67,30-67,67c0,37,30,67,67,67c37,0,67-30,67-67C687.3,59.5,657.4,29.5,620.3,29.5z M620.3,146.5
			c-27.6,0-50-22.4-50-50c0-27.6,22.4-50,50-50c27.6,0,50,22.4,50,50C670.3,124.1,648,146.5,620.3,146.5z"/>
		<g>
			<path d="M515.5,31h-66.7c-14.7,0-26.7,12-26.7,26.7v6.7c0,14.7,12,26.7,26.7,26.7h66.7c14.7,0,26.7-12,26.7-26.7v-6.7
				C542.2,43,530.2,31,515.5,31z M525.2,61c0,7.1-5.8,13-13,13h-60c-7.2,0-13-5.8-13-13v0c0-7.1,5.8-13,13-13h60
				C519.4,48,525.2,53.9,525.2,61L525.2,61z"/>
			<path d="M515.5,102h-66.7c-14.7,0-26.7,12-26.7,26.7v6.7c0,14.7,12,26.7,26.7,26.7h66.7c14.7,0,26.7-12,26.7-26.7v-6.7
				C542.2,114,530.2,102,515.5,102z M525.2,132c0,7.1-5.8,13-13,13h-60c-7.2,0-13-5.8-13-13v0c0-7.1,5.8-13,13-13h60
				C519.4,119,525.2,124.9,525.2,132L525.2,132z"/>
		</g>
		<path d="M877,12c0-6.6-5.4-12-12-12H135c-6.6,0-12,5.4-12,12L73,181c0,6.6,5.4,12,12,12h830c6.6,0,12-5.4,12-12L877,12z
			 M893.5,176h-785c-6.3,0-11.5-4.5-11.5-9.9l41-139.2c0-5.5,5.2-9.9,11.5-9.9h700.9c6.3,0,11.5,4.5,11.5,9.9l41,139.2
			C903,171.5,899.8,176,893.5,176z"/>
	</g>
	<g>
		<path d="M145,226v2.4c0,48.2,35.2,87.6,78.3,87.6h553.5c43,0,78.3-39.4,78.3-87.6V226H145z M833,244.5c0,30-28.5,54.5-69.5,54.5
			h-527c-41,0-69.5-24.5-69.5-54.5V243h666V244.5z"/>
		<path fill="#020202" d="M910,243v740H90V243h16c0.9,56.9,47.4,102.9,104.5,102.9h578.9c57.1,0,103.6-46,104.5-102.9H910 M915,226
			h-38v15.3c0,48.1-39.4,87.5-87.5,87.5H210.5c-48.1,0-87.5-39.4-87.5-87.5V226H85c-6.6,0-12,5.4-12,12v750c0,6.6,5.4,12,12,12h830
			c6.6,0,12-5.4,12-12V238C927,231.4,921.6,226,915,226L915,226z"/>
	</g>
</g>
</svg>
