<?xml version="1.0" standalone="no"?>
<!DOCTYPE svg PUBLIC "-//W3C//DTD SVG 1.1//EN" "http://www.w3.org/Graphics/SVG/1.1/DTD/svg11.dtd" >
<svg xmlns="http://www.w3.org/2000/svg" xmlns:xlink="http://www.w3.org/1999/xlink" version="1.1" viewBox="0 -64 512 512">
  <g transform="matrix(1 0 0 -1 0 448)">
   <path fill="currentColor"
d="M485 448q11 0 19 -8t8 -19v-458q0 -11 -7.5 -19t-18.5 -8h-460q-10 0 -18 7.5t-8 18.5v460q0 11 8 18.5t19 7.5h458zM396 264q22 16 36 37q-20 -9 -41 -12q23 15 31 40q-23 -12 -46 -17q-21 23 -52 23q-30 0 -52 -21q-21 -21 -21 -51q0 -9 3 -16q-91 3 -149 75
q-10 -18 -10 -36q0 -39 32 -61q-18 2 -32 9q0 -26 16 -46t41 -25q-9 -3 -19 -3q-9 0 -13 2q7 -22 25.5 -36t41.5 -15q-39 -30 -89 -30q-14 0 -18 1q50 -33 111 -33q63 0 111 32t71 78q23 45 23 95v10z" />
  </g>

</svg>
