<?xml version="1.0" encoding="utf-8"?>
<!-- Generator: Adobe Illustrator 18.1.1, SVG Export Plug-In . SVG Version: 6.00 Build 0)  -->
<svg version="1.0" id="Layer_1" xmlns="http://www.w3.org/2000/svg" xmlns:xlink="http://www.w3.org/1999/xlink" x="0px" y="0px"
	 viewBox="0 0 1000 1000" enable-background="new 0 0 1000 1000" xml:space="preserve">
<g>
	<path d="M880,0H120C76.9,0,41.6,35.2,41.6,78.3v121.1h916.8V78.3C958.4,35.2,923.1,0,880,0z M938.3,179.4H61.7V78.3
		c0-32.1,26.1-58.3,58.3-58.3H880c32.1,0,58.3,26.1,58.3,58.3V179.4z"/>
	<path d="M41.6,921.7c0,43.1,35.3,78.3,78.3,78.3H880c43.1,0,78.3-35.2,78.3-78.3V279.3H41.6V921.7z M61.7,299.4h876.6v622.3
		c0,32.1-26.1,58.2-58.3,58.2H120c-32.1,0-58.3-26.1-58.3-58.2V299.4z"/>
	<path d="M510.1,927.2c158.5,0,287.5-129,287.5-287.5c0-158.5-129-287.5-287.5-287.5c-158.5,0-287.5,129-287.5,287.5
		C222.6,798.2,351.6,927.2,510.1,927.2z M510.1,372.2c147.5,0,267.4,119.9,267.4,267.4c0,147.5-120,267.4-267.4,267.4
		c-147.5,0-267.4-120-267.4-267.4C242.7,492.2,362.6,372.2,510.1,372.2z"/>
	<path d="M848.1,45.7c-31.5,0-57.2,25.7-57.2,57.2c0,31.5,25.7,57.2,57.2,57.2c31.5,0,57.2-25.7,57.2-57.2
		C905.3,71.4,879.6,45.7,848.1,45.7z M848.1,144.1c-22.7,0-41.2-18.5-41.2-41.2c0-22.7,18.5-41.1,41.2-41.1
		c22.7,0,41.1,18.4,41.1,41.1C889.2,125.6,870.8,144.1,848.1,144.1z"/>
	<path d="M848.1,73.4c-16.3,0-29.6,13.3-29.6,29.6c0,16.3,13.2,29.6,29.6,29.6c16.3,0,29.5-13.3,29.5-29.6
		C877.6,86.6,864.4,73.4,848.1,73.4z M848.1,112.4c-5.3,0-9.5-4.3-9.5-9.5c0-5.3,4.2-9.5,9.5-9.5c5.2,0,9.5,4.2,9.5,9.5
		C857.6,108.2,853.3,112.4,848.1,112.4z"/>
	<path d="M139.4,68.1c-19.2,0-34.8,15.6-34.8,34.8c0,19.2,15.6,34.8,34.8,34.8c19.2,0,34.8-15.6,34.8-34.8
		C174.2,83.7,158.6,68.1,139.4,68.1z M139.4,117.6c-8.1,0-14.7-6.6-14.7-14.7c0-8.1,6.6-14.7,14.7-14.7c8.1,0,14.7,6.6,14.7,14.7
		C154.2,111,147.6,117.6,139.4,117.6z"/>
	<path d="M218.6,68.1c-19.2,0-34.8,15.6-34.8,34.8c0,19.2,15.6,34.8,34.8,34.8c19.2,0,34.8-15.6,34.8-34.8
		C253.4,83.7,237.8,68.1,218.6,68.1z M218.6,117.6c-8.1,0-14.7-6.6-14.7-14.7c0-8.1,6.6-14.7,14.7-14.7c8.1,0,14.7,6.6,14.7,14.7
		C233.3,111,226.7,117.6,218.6,117.6z"/>
	<path d="M297.8,68.1c-19.2,0-34.8,15.6-34.8,34.8c0,19.2,15.6,34.8,34.8,34.8c19.2,0,34.8-15.6,34.8-34.8
		C332.6,83.7,317,68.1,297.8,68.1z M297.8,117.6c-8.1,0-14.7-6.6-14.7-14.7c0-8.1,6.6-14.7,14.7-14.7c8.1,0,14.7,6.6,14.7,14.7
		C312.5,111,305.9,117.6,297.8,117.6z"/>
	<path d="M377,68.1c-19.2,0-34.8,15.6-34.8,34.8c0,19.2,15.6,34.8,34.8,34.8c19.2,0,34.8-15.6,34.8-34.8
		C411.7,83.7,396.2,68.1,377,68.1z M377,117.6c-8.1,0-14.7-6.6-14.7-14.7c0-8.1,6.6-14.7,14.7-14.7c8.1,0,14.7,6.6,14.7,14.7
		C391.7,111,385.1,117.6,377,117.6z"/>
	<path d="M605.1,471.2c-28.1-16-60.5-25.1-95.1-25.1c-51.8,0-93.8,58-93.8,129.6c0,3.7,0.1,7.3,0.4,11
		C427.1,526.6,519,462.1,605.1,471.2z"/>
	<path d="M408.3,688.6c3.2,1.9,6.4,3.6,9.7,5.2c-46.8-39.1-56.7-151-5.8-220.9c-27.8,16.3-51.9,39.8-69.2,69.8
		C317,587.5,346.3,652.8,408.3,688.6z"/>
	<path d="M502,752c3.2-1.8,6.3-3.8,9.3-5.8c-57.3,21-159.1-26.4-194.2-105.5c0.2,32.3,8.5,64.9,25.8,94.8
		C368.8,780.4,440.1,787.7,502,752z"/>
	<path d="M415,806.9c28.1,16,60.4,25.1,95.1,25.1c51.8,0,93.7-58,93.7-129.6c0-3.7-0.2-7.4-0.3-11C593,751.5,501,816.1,415,806.9z"
		/>
	<path d="M611.8,589.6c-3.2-1.8-6.4-3.6-9.7-5.2c46.8,39.1,56.7,151,5.8,220.9c27.8-16.3,51.9-39.8,69.3-69.8
		C703,690.7,673.7,625.4,611.8,589.6z"/>
	<path d="M518,526.2c-3.2,1.8-6.3,3.8-9.3,5.7c57.3-21,159.1,26.4,194.2,105.5c-0.2-32.3-8.5-64.9-25.8-94.8
		C651.2,497.8,580,490.4,518,526.2z"/>
</g>
</svg>
