<?xml version="1.0" encoding="utf-8"?>
<!-- Generator: Adobe Illustrator 18.1.1, SVG Export Plug-In . SVG Version: 6.00 Build 0)  -->
<svg version="1.0" id="Layer_1" xmlns="http://www.w3.org/2000/svg" xmlns:xlink="http://www.w3.org/1999/xlink" x="0px" y="0px"
	 viewBox="0 0 1000 1000" enable-background="new 0 0 1000 1000" xml:space="preserve">
<g>
	<path d="M880,0H120C76.9,0,41.6,35.2,41.6,78.3v121.1h916.8V78.3C958.4,35.2,923.1,0,880,0 M938.3,179.4H61.7V78.3
		c0-32.1,26.1-58.3,58.3-58.3H880c32.1,0,58.3,26.1,58.3,58.3V179.4z"/>
	<path d="M41.6,921.7c0,43.1,35.3,78.3,78.3,78.3H880c43.1,0,78.3-35.2,78.3-78.3V279.3H41.6V921.7z M61.7,299.4h876.6v622.3
		c0,32.1-26.1,58.2-58.3,58.2H120c-32.1,0-58.3-26.1-58.3-58.2V299.4z"/>
	<path d="M510.1,352.2c-158.5,0-287.5,129-287.5,287.5c0,158.5,129,287.5,287.5,287.5c158.5,0,287.5-129,287.5-287.5
		C797.6,481.1,668.6,352.2,510.1,352.2z M510.1,907.1c-147.5,0-267.4-120-267.4-267.4c0-147.5,120-267.4,267.4-267.4
		c147.5,0,267.4,119.9,267.4,267.4C777.5,787.1,657.6,907.1,510.1,907.1z"/>
	<g>
		<path d="M848.1,45.7c-31.5,0-57.2,25.7-57.2,57.2c0,31.5,25.7,57.2,57.2,57.2c31.5,0,57.2-25.7,57.2-57.2
			C905.3,71.4,879.6,45.7,848.1,45.7z M848.1,144.1c-22.7,0-41.2-18.5-41.2-41.2c0-22.7,18.5-41.1,41.2-41.1
			c22.7,0,41.1,18.4,41.1,41.1C889.2,125.6,870.8,144.1,848.1,144.1z"/>
		<path d="M848.1,73.4c-16.3,0-29.6,13.3-29.6,29.6c0,16.3,13.2,29.6,29.6,29.6c16.3,0,29.5-13.3,29.5-29.6
			C877.6,86.6,864.4,73.4,848.1,73.4z M848.1,112.4c-5.3,0-9.5-4.3-9.5-9.5c0-5.3,4.2-9.5,9.5-9.5c5.2,0,9.5,4.2,9.5,9.5
			C857.6,108.2,853.3,112.4,848.1,112.4z"/>
	</g>
	<path d="M139.4,68.1c-19.2,0-34.8,15.6-34.8,34.8s15.6,34.8,34.8,34.8c19.2,0,34.8-15.6,34.8-34.8S158.6,68.1,139.4,68.1
		 M139.4,117.6c-8.1,0-14.7-6.6-14.7-14.7s6.6-14.7,14.7-14.7c8.1,0,14.7,6.6,14.7,14.7S147.6,117.6,139.4,117.6"/>
	<path d="M218.6,68.1c-19.2,0-34.8,15.6-34.8,34.8s15.6,34.8,34.8,34.8c19.2,0,34.8-15.6,34.8-34.8S237.8,68.1,218.6,68.1
		 M218.6,117.6c-8.1,0-14.7-6.6-14.7-14.7s6.6-14.7,14.7-14.7c8.1,0,14.7,6.6,14.7,14.7S226.7,117.6,218.6,117.6"/>
	<path d="M297.8,68.1c-19.2,0-34.8,15.6-34.8,34.8s15.6,34.8,34.8,34.8c19.2,0,34.8-15.6,34.8-34.8S317,68.1,297.8,68.1
		 M297.8,117.6c-8.1,0-14.7-6.6-14.7-14.7s6.6-14.7,14.7-14.7c8.1,0,14.7,6.6,14.7,14.7S305.9,117.6,297.8,117.6"/>
	<path d="M377,68.1c-19.2,0-34.8,15.6-34.8,34.8s15.6,34.8,34.8,34.8c19.2,0,34.8-15.6,34.8-34.8S396.2,68.1,377,68.1 M377,117.6
		c-8.1,0-14.7-6.6-14.7-14.7s6.6-14.7,14.7-14.7c8.1,0,14.7,6.6,14.7,14.7S385.1,117.6,377,117.6"/>
	<g>
		<path d="M451.7,515.2c50.5,20.9,74.4,78.7,53.5,129.2c0,0,0,0,0,0c0,0,0,0,0,0c0,0,0,0,0,0c0,0,0,0,0,0
			c54.6,0,98.9-44.3,98.9-98.9c0-54.6-44.3-98.9-98.9-98.9c-13.4,0-26.2,2.7-37.8,7.5c38.8,0,75.6,23,91.4,61.1
			c20.9,50.4-3,108.3-53.5,129.2c38.6-38.6,38.6-101.2,0-139.8c-38.6-38.7-101.3-38.7-139.9,0c-9.5,9.5-16.6,20.4-21.5,32.1
			C371.4,509.2,413.7,499.4,451.7,515.2z"/>
		<path d="M604.2,743.4c54.6,0,98.9-44.3,98.9-98.9c0-13.4-2.7-26.2-7.5-37.8c0,38.8-23,75.6-61.1,91.4
			c-50.5,20.9-108.3-3-129.2-53.5c0,0,0,0,0,0c0,0,0,0,0,0c0,0,0,0,0,0c0,0,0,0,0,0c0,0,0,0,0,0c0,0,0,0,0,0c0,0,0,0,0,0
			c0,0,0,0,0,0c0-54.6-44.3-98.9-98.9-98.9c-54.6,0-98.9,44.3-98.9,98.9c0,13.4,2.7,26.2,7.5,37.9c0-38.8,23-75.6,61.1-91.4
			c50.4-20.9,108.3,3,129.2,53.5c-38.6-38.6-101.2-38.6-139.8,0c-38.7,38.6-38.7,101.3,0,139.9c9.5,9.5,20.4,16.6,32.1,21.4
			C370,778.3,360.2,736.1,376,698c20.9-50.5,78.8-74.4,129.2-53.5c-54.6,0-98.9,44.3-98.9,98.9c0,54.6,44.3,98.9,98.9,98.9
			c13.4,0,26.2-2.7,37.9-7.5c-38.8,0-75.6-23-91.4-61.1c-20.9-50.5,3-108.3,53.5-129.3c0,0,0,0,0,0c0,0,0,0,0,0
			c-38.6,38.6-38.6,101.3,0,139.9c38.6,38.6,101.3,38.6,139.9,0c9.5-9.5,16.6-20.4,21.4-32.1c-27.5,27.4-69.7,37.2-107.8,21.5
			c-50.5-20.9-74.4-78.7-53.5-129.2C505.3,699.1,549.6,743.4,604.2,743.4z"/>
		<path d="M505.3,644.4c38.6,38.6,101.3,38.6,139.9,0c38.6-38.6,38.6-101.2,0-139.9c-9.5-9.5-20.4-16.6-32.1-21.5
			c27.4,27.5,37.2,69.7,21.5,107.8C613.6,641.4,555.8,665.4,505.3,644.4z"/>
	</g>
</g>
</svg>
