<?xml version="1.0" encoding="utf-8"?>
<!-- Generator: Adobe Illustrator 18.1.1, SVG Export Plug-In . SVG Version: 6.00 Build 0)  -->
<svg version="1.0" id="Layer_1" xmlns="http://www.w3.org/2000/svg" xmlns:xlink="http://www.w3.org/1999/xlink" x="0px" y="0px"
	 viewBox="0 0 1000 1000" enable-background="new 0 0 1000 1000" xml:space="preserve">
<g>
	<g>
		<circle fill="#020202" cx="850" cy="105" r="28"/>
		<path fill="#020202" d="M917.5,0h-835c-27.5,0-50,22.5-50,50v148c0,6.6,5.4,12,12,12h911c6.6,0,12-5.4,12-12V50
			C967.5,22.5,945,0,917.5,0z M116.2,131.3c-14.5,0-26.2-11.8-26.2-26.2c0-14.5,11.8-26.2,26.2-26.2s26.2,11.8,26.2,26.2
			C142.5,119.5,130.7,131.3,116.2,131.3z M188.7,131.3c-14.5,0-26.2-11.8-26.2-26.2c0-14.5,11.8-26.2,26.2-26.2S215,90.5,215,105
			C215,119.5,203.2,131.3,188.7,131.3z M261.2,131.3c-14.5,0-26.2-11.8-26.2-26.2c0-14.5,11.8-26.2,26.2-26.2s26.2,11.8,26.2,26.2
			C287.5,119.5,275.7,131.3,261.2,131.3z M333.7,131.3c-14.5,0-26.2-11.8-26.2-26.2c0-14.5,11.8-26.2,26.2-26.2S360,90.5,360,105
			C360,119.5,348.2,131.3,333.7,131.3z M850,150c-24.9,0-45-20.1-45-45c0-24.9,20.1-45,45-45s45,20.1,45,45
			C895,129.9,874.8,150,850,150z"/>
	</g>
	<g>
		<path d="M955.5,257h-911c-6.6,0-12,5.4-12,12v681c0,27.5,22.5,50,50,50h835c27.5,0,50-22.5,50-50V269
			C967.5,262.4,962.1,257,955.5,257z M500,911c-156,0-282.5-126.5-282.5-282.5S344,346,500,346s282.5,126.5,282.5,282.5
			S656,911,500,911z"/>
		<circle cx="500" cy="628.5" r="129"/>
		<path d="M500,423c-113.5,0-205.5,92-205.5,205.5S386.5,834,500,834s205.5-92,205.5-205.5S613.5,423,500,423z M500,799.5
			c-94.4,0-171-76.6-171-171s76.6-171,171-171s171,76.6,171,171S594.4,799.5,500,799.5z"/>
	</g>
</g>
</svg>
