<?xml version="1.0" encoding="utf-8"?>
<!-- Generator: Adobe Illustrator 18.1.1, SVG Export Plug-In . SVG Version: 6.00 Build 0)  -->
<svg version="1.0" id="Layer_1" xmlns="http://www.w3.org/2000/svg" xmlns:xlink="http://www.w3.org/1999/xlink" x="0px" y="0px"
	 viewBox="0 0 1000 1000" enable-background="new 0 0 1000 1000" xml:space="preserve">
<g>
	<path d="M880,0H120C76.9,0,41.6,35.2,41.6,78.3v121.1h916.8V78.3C958.4,35.2,923.1,0,880,0z M938.3,179.4H61.7V78.3
		c0-32.1,26.1-58.3,58.3-58.3H880c32.1,0,58.3,26.1,58.3,58.3V179.4z"/>
	<path d="M41.6,921.7c0,43.1,35.3,78.3,78.3,78.3H880c43.1,0,78.3-35.2,78.3-78.3V279.3H41.6V921.7z M61.7,299.4h876.6v622.3
		c0,32.1-26.1,58.2-58.3,58.2H120c-32.1,0-58.3-26.1-58.3-58.2V299.4z"/>
	<path d="M510.1,927.2c158.5,0,287.5-129,287.5-287.5c0-158.5-129-287.5-287.5-287.5c-158.5,0-287.5,129-287.5,287.5
		C222.6,798.2,351.6,927.2,510.1,927.2z M510.1,372.2c147.5,0,267.4,119.9,267.4,267.4c0,147.5-120,267.4-267.4,267.4
		c-147.5,0-267.4-120-267.4-267.4C242.7,492.2,362.6,372.2,510.1,372.2z"/>
	<path d="M848.1,45.7c-31.5,0-57.2,25.7-57.2,57.2c0,31.5,25.7,57.2,57.2,57.2c31.5,0,57.2-25.7,57.2-57.2
		C905.3,71.4,879.6,45.7,848.1,45.7z M848.1,144.1c-22.7,0-41.2-18.5-41.2-41.2c0-22.7,18.5-41.1,41.2-41.1
		c22.7,0,41.1,18.4,41.1,41.1C889.2,125.6,870.8,144.1,848.1,144.1z"/>
	<path d="M848.1,73.4c-16.3,0-29.6,13.3-29.6,29.6c0,16.3,13.2,29.6,29.6,29.6c16.3,0,29.5-13.3,29.5-29.6
		C877.6,86.6,864.4,73.4,848.1,73.4z M848.1,112.4c-5.3,0-9.5-4.3-9.5-9.5c0-5.3,4.2-9.5,9.5-9.5c5.2,0,9.5,4.2,9.5,9.5
		C857.6,108.2,853.3,112.4,848.1,112.4z"/>
	<path d="M139.4,68.1c-19.2,0-34.8,15.6-34.8,34.8s15.6,34.8,34.8,34.8c19.2,0,34.8-15.6,34.8-34.8S158.6,68.1,139.4,68.1z
		 M139.4,117.6c-8.1,0-14.7-6.6-14.7-14.7s6.6-14.7,14.7-14.7c8.1,0,14.7,6.6,14.7,14.7S147.6,117.6,139.4,117.6z"/>
	<path d="M218.6,68.1c-19.2,0-34.8,15.6-34.8,34.8s15.6,34.8,34.8,34.8c19.2,0,34.8-15.6,34.8-34.8S237.8,68.1,218.6,68.1z
		 M218.6,117.6c-8.1,0-14.7-6.6-14.7-14.7s6.6-14.7,14.7-14.7c8.1,0,14.7,6.6,14.7,14.7S226.7,117.6,218.6,117.6z"/>
	<path d="M297.8,68.1c-19.2,0-34.8,15.6-34.8,34.8s15.6,34.8,34.8,34.8c19.2,0,34.8-15.6,34.8-34.8S317,68.1,297.8,68.1z
		 M297.8,117.6c-8.1,0-14.7-6.6-14.7-14.7s6.6-14.7,14.7-14.7c8.1,0,14.7,6.6,14.7,14.7S305.9,117.6,297.8,117.6z"/>
	<path d="M377,68.1c-19.2,0-34.8,15.6-34.8,34.8s15.6,34.8,34.8,34.8c19.2,0,34.8-15.6,34.8-34.8S396.2,68.1,377,68.1z M377,117.6
		c-8.1,0-14.7-6.6-14.7-14.7s6.6-14.7,14.7-14.7c8.1,0,14.7,6.6,14.7,14.7S385.1,117.6,377,117.6z"/>
	<path d="M450.5,665.8c-26.5-7.1-53.7,8.6-60.8,35.1c-7.1,26.5,8.6,53.7,35.1,60.8c26.5,7.1,53.7-8.6,60.8-35.1
		C492.7,700.1,476.9,672.9,450.5,665.8z"/>
	<path d="M401.9,582.4c-27.1,7.4-15.9,48.6,11.2,41.2C482.5,604.9,546,668.3,528,737.4c-7.1,27.1,34.2,37.8,41.2,10.7
		C595.6,646.7,502.4,555.2,401.9,582.4z"/>
	<path d="M410.1,535.6c120.2-18.3,223.1,84.3,206,204c-4,27.8,38.3,33.8,42.2,6c21.4-147.9-106-274.8-254.5-252.3
		C375.9,497.6,382.4,539.8,410.1,535.6z"/>
</g>
</svg>
