<?xml version="1.0" encoding="utf-8"?>
<!-- Generator: Adobe Illustrator 18.1.1, SVG Export Plug-In . SVG Version: 6.00 Build 0)  -->
<svg version="1.0" id="Layer_1" xmlns="http://www.w3.org/2000/svg" xmlns:xlink="http://www.w3.org/1999/xlink" x="0px" y="0px"
	 viewBox="0 0 1000 1000" enable-background="new 0 0 1000 1000" xml:space="preserve">
<g>
	<path d="M880,0H120C76.9,0,41.6,35.3,41.6,78.3v121.1h916.8V78.3C958.4,35.3,923.1,0,880,0z M938.3,179.4H61.7V78.3
		c0-32.1,26.1-58.3,58.3-58.3H880c32.1,0,58.3,26.1,58.3,58.3V179.4z"/>
	<path d="M41.6,921.7c0,43.1,35.3,78.3,78.3,78.3H880c43.1,0,78.3-35.2,78.3-78.3V279.4H41.6V921.7z M61.7,299.4h876.6v622.3
		c0,32.1-26.1,58.2-58.3,58.2H120c-32.1,0-58.3-26.1-58.3-58.2V299.4z"/>
	<path d="M510.1,927.2c158.5,0,287.5-129,287.5-287.5c0-158.5-129-287.5-287.5-287.5c-158.5,0-287.5,129-287.5,287.5
		C222.6,798.2,351.6,927.2,510.1,927.2z M510.1,372.3c147.5,0,267.4,119.9,267.4,267.4c0,147.5-120,267.4-267.4,267.4
		c-147.5,0-267.4-120-267.4-267.4C242.7,492.2,362.6,372.3,510.1,372.3z"/>
	<path d="M848.1,45.7c-31.5,0-57.2,25.7-57.2,57.2c0,31.5,25.7,57.2,57.2,57.2c31.5,0,57.2-25.7,57.2-57.2
		C905.3,71.4,879.6,45.7,848.1,45.7z M848.1,144.1c-22.7,0-41.2-18.5-41.2-41.2c0-22.7,18.5-41.1,41.2-41.1
		c22.7,0,41.1,18.4,41.1,41.1C889.2,125.7,870.8,144.1,848.1,144.1z"/>
	<path d="M848.1,73.4c-16.3,0-29.6,13.3-29.6,29.6c0,16.3,13.2,29.6,29.6,29.6c16.3,0,29.5-13.3,29.5-29.6
		C877.6,86.7,864.4,73.4,848.1,73.4z M848.1,112.5c-5.3,0-9.5-4.3-9.5-9.5c0-5.3,4.2-9.5,9.5-9.5c5.2,0,9.5,4.2,9.5,9.5
		C857.6,108.2,853.3,112.5,848.1,112.5z"/>
	<path d="M139.4,68.2c-19.2,0-34.8,15.6-34.8,34.8s15.6,34.8,34.8,34.8c19.2,0,34.8-15.6,34.8-34.8S158.6,68.2,139.4,68.2z
		 M139.4,117.7c-8.1,0-14.7-6.6-14.7-14.7s6.6-14.7,14.7-14.7c8.1,0,14.7,6.6,14.7,14.7S147.6,117.7,139.4,117.7z"/>
	<path d="M218.6,68.2c-19.2,0-34.8,15.6-34.8,34.8s15.6,34.8,34.8,34.8c19.2,0,34.8-15.6,34.8-34.8S237.8,68.2,218.6,68.2z
		 M218.6,117.7c-8.1,0-14.7-6.6-14.7-14.7s6.6-14.7,14.7-14.7c8.1,0,14.7,6.6,14.7,14.7S226.7,117.7,218.6,117.7z"/>
	<path d="M297.8,68.2c-19.2,0-34.8,15.6-34.8,34.8s15.6,34.8,34.8,34.8c19.2,0,34.8-15.6,34.8-34.8S317,68.2,297.8,68.2z
		 M297.8,117.7c-8.1,0-14.7-6.6-14.7-14.7s6.6-14.7,14.7-14.7c8.1,0,14.7,6.6,14.7,14.7S305.9,117.7,297.8,117.7z"/>
	<path d="M377,68.2c-19.2,0-34.8,15.6-34.8,34.8s15.6,34.8,34.8,34.8c19.2,0,34.8-15.6,34.8-34.8S396.2,68.2,377,68.2z M377,117.7
		c-8.1,0-14.7-6.6-14.7-14.7s6.6-14.7,14.7-14.7c8.1,0,14.7,6.6,14.7,14.7S385.1,117.7,377,117.7z"/>
	<path d="M562.7,509.7c-23.6-24.7-34.4-44.8-47.6-88.9c-13.2,44.1-24,64.2-47.6,88.9c23.7,24.7,34.4,44.8,47.6,89
		C528.3,554.5,539.1,534.4,562.7,509.7z"/>
	<path d="M483.1,617.2c-31.6-33.6-43.6-52.9-53.3-85.7c-33.2,8.1-56,7.3-100.8-3.3c31.6,33.5,43.6,52.8,53.2,85.7
		C415.5,605.8,438.2,606.6,483.1,617.2z"/>
	<path d="M429.8,739.9c9.6-32.8,21.6-52.2,53.3-85.7c-44.9,10.6-67.6,11.4-100.8,3.2c-9.6,32.9-21.6,52.2-53.2,85.7
		C373.8,732.5,396.6,731.8,429.8,739.9z"/>
	<path d="M467.5,761.7c23.6,24.7,34.4,44.8,47.6,88.9c13.2-44.2,24-64.2,47.6-88.9c-23.6-24.8-34.4-44.8-47.6-89
		C501.9,716.9,491.1,736.9,467.5,761.7z"/>
	<path d="M547.2,654.2c31.6,33.5,43.6,52.9,53.2,85.7c33.2-8.1,56-7.4,100.8,3.3c-31.6-33.6-43.6-52.9-53.2-85.7
		C614.8,665.6,592.1,664.8,547.2,654.2z"/>
	<path d="M648,613.9c9.6-32.9,21.6-52.2,53.2-85.7c-44.8,10.6-67.6,11.3-100.8,3.3c-9.6,32.8-21.6,52.1-53.2,85.7
		C592.1,606.6,614.8,605.8,648,613.9z"/>
</g>
</svg>
