<?xml version="1.0" encoding="utf-8"?>
<!-- Generator: Adobe Illustrator 18.1.1, SVG Export Plug-In . SVG Version: 6.00 Build 0)  -->
<svg version="1.0" id="Layer_1" xmlns="http://www.w3.org/2000/svg" xmlns:xlink="http://www.w3.org/1999/xlink" x="0px" y="0px"
	 viewBox="0 0 1000 1000" enable-background="new 0 0 1000 1000" xml:space="preserve">
<g>
	<path d="M880,0H120C76.9,0,42,35.2,42,78.3V199h916V78.3C958,35.2,923.1,0,880,0z M938,179H62V78.3C62,46.2,87.8,20,120,20H880
		c32.1,0,58,26.2,58,58.3V179z"/>
	<path d="M42,921.7c0,43.1,34.9,78.3,78,78.3H880c43.1,0,78-35.2,78-78.3V279H42V921.7z M62,299h876v622.7c0,32.1-25.8,58.3-58,58.3
		H120c-32.1,0-58-26.2-58-58.3V299z"/>
	<g>
		<path d="M848.1,45.7c-31.5,0-57.2,25.7-57.2,57.2c0,31.5,25.7,57.2,57.2,57.2c31.5,0,57.2-25.7,57.2-57.2
			C905.3,71.4,879.6,45.7,848.1,45.7z M848.1,144.1c-22.7,0-41.2-18.5-41.2-41.2c0-22.7,18.5-41.1,41.2-41.1
			c22.7,0,41.1,18.4,41.1,41.1C889.2,125.7,870.8,144.1,848.1,144.1z"/>
		<path d="M848.1,73.4c-16.3,0-29.6,13.3-29.6,29.6c0,16.3,13.2,29.6,29.6,29.6c16.3,0,29.5-13.3,29.5-29.6
			C877.6,86.7,864.4,73.4,848.1,73.4z M848.1,112.5c-5.3,0-9.5-4.3-9.5-9.5c0-5.3,4.2-9.5,9.5-9.5c5.2,0,9.5,4.2,9.5,9.5
			C857.6,108.2,853.3,112.5,848.1,112.5z"/>
	</g>
	<path d="M139.4,68.1c-19.2,0-34.8,15.6-34.8,34.8s15.6,34.8,34.8,34.8c19.2,0,34.8-15.6,34.8-34.8S158.6,68.1,139.4,68.1z
		 M139.4,117.6c-8.1,0-14.7-6.6-14.7-14.7s6.6-14.7,14.7-14.7c8.1,0,14.7,6.6,14.7,14.7S147.6,117.6,139.4,117.6z"/>
	<path d="M218.6,68.1c-19.2,0-34.8,15.6-34.8,34.8s15.6,34.8,34.8,34.8c19.2,0,34.8-15.6,34.8-34.8S237.8,68.1,218.6,68.1z
		 M218.6,117.6c-8.1,0-14.7-6.6-14.7-14.7s6.6-14.7,14.7-14.7c8.1,0,14.7,6.6,14.7,14.7S226.7,117.6,218.6,117.6z"/>
	<path d="M297.8,68.1c-19.2,0-34.8,15.6-34.8,34.8s15.6,34.8,34.8,34.8c19.2,0,34.8-15.6,34.8-34.8S317,68.1,297.8,68.1z
		 M297.8,117.6c-8.1,0-14.7-6.6-14.7-14.7s6.6-14.7,14.7-14.7c8.1,0,14.7,6.6,14.7,14.7S305.9,117.6,297.8,117.6z"/>
	<path d="M377,68.1c-19.2,0-34.8,15.6-34.8,34.8s15.6,34.8,34.8,34.8c19.2,0,34.8-15.6,34.8-34.8S396.2,68.1,377,68.1z M377,117.6
		c-8.1,0-14.7-6.6-14.7-14.7s6.6-14.7,14.7-14.7c8.1,0,14.7,6.6,14.7,14.7S385.1,117.6,377,117.6z"/>
	<g>
		<path d="M510.1,352.2c-158.5,0-287.5,129-287.5,287.5c0,158.5,129,287.5,287.5,287.5c158.5,0,287.5-129,287.5-287.5
			C797.6,481.2,668.6,352.2,510.1,352.2z M677.1,848.4c-4.4-11.1-19.4-35.5-22.6-40.2L594,710.6c-4-5.8-12.1-7.3-17.9-3.2
			c-5.9,4-7.3,12.1-3.3,17.9l69,89.3c3.2,4.7,22.1,29,31.4,36.9c-9.6,7.4-19.7,14.2-30.2,20.2c-7.7-10-27.2-28.5-31.4-32.1l-83.4-79
			c-5.4-4.6-13.6-4-18.2,1.5c-4.5,5.4-3.9,13.5,1.5,18.1l89.5,68.7c3.9,3.4,24.4,19.1,36.3,26c-37.9,20.6-81.2,32.3-127.2,32.3
			c-147.5,0-267.4-120-267.4-267.4c0-147.5,120-267.4,267.4-267.4c147.5,0,267.4,119.9,267.4,267.4
			C777.5,724,738.3,799.4,677.1,848.4z"/>
		<path d="M685.1,637.7c-29.6-47.3-77.8-44.6-107.7-34.3c-11.1-24.4-37.6-54.6-87.1-47.8c-22,3-39.1,12.4-50.7,27.8
			c-12.8,17-15.3,36.6-15.7,49.7c-20.4,2.7-46.5,15.1-53.8,53c-1.1,5.5-1.5,10.7-1.5,15.6c0,29.6,17.8,47.3,32.7,55.5
			c-3.8,9.2-6.4,19.8-6.3,31.8c0.6,33.3,23.4,62.1,56.9,71.7c34.2,9.9,62.2-7,71.7-19.9c4.2-5.7,3-13.8-2.7-18
			c-5.8-4.2-13.9-3-18.1,2.7c-2.8,3.7-19.3,17.5-43.8,10.5c-22.8-6.6-37.8-25.2-38.1-47.4c-0.4-22.9,14.7-39.4,20-43.4
			c5.8-4.2,7-12.3,2.7-18c-4.2-5.7-12.3-7-18-2.8c-3,2.3-7,6-10.8,10.7c-7.5-3.7-24.8-15.6-19.2-44.2c6.8-35.2,36.8-33.3,40.2-33.1
			c3.9,0.4,7.9-1.1,10.6-3.9c2.7-2.8,4.1-6.8,3.6-10.7c-0.7-5.6-5.8-55.1,44.1-62.2c49.4-6.7,62.5,36.9,63.8,41.8
			c1,3.8,3.7,6.9,7.2,8.4c3.5,1.6,7.7,1.6,11.1-0.1c2.3-1.2,57.3-27.9,87.2,20c9.9,15.9,13.4,36.9,8.7,53.8
			c-2.1,8.1-7.2,19.1-19.2,25.2c-6.4,3.3-8.8,11.1-5.4,17.4c3.2,6.3,11.1,8.7,17.4,5.4c15.9-8.4,27-22.7,32.1-41.3
			C703.4,688.1,698.8,659.7,685.1,637.7z M424.1,645v-0.1l0.1,1.7L424.1,645z"/>
		<path d="M379.4,626.7c3.2-6.3,0.8-14.1-5.5-17.3c-2.2-1.2-21.6-12.3-16.5-39.6c6.6-35.1,36.8-33.3,40.2-33.1
			c3.9,0.4,7.9-1,10.6-3.8c2.7-2.8,4-6.8,3.6-10.7c-0.7-5.6-5.7-55.2,44.1-62c49.4-6.8,62.5,36.8,63.9,41.7c1,3.8,3.7,7,7.3,8.6
			c3.6,1.6,7.8,1.4,11.3-0.4c2.1-1.1,48.1-25.7,76.5,7.1c11,12.8,13.9,28.3,8,42.3l0.2-0.3l-0.6,2.9c0,6.9,5.8,12.4,13,12.4
			c5.1,0,9.5-2.9,11.6-7l-0.4,2l0.7-2.3l0.6-2.2c7.3-22,2.7-45.8-13.6-64.6c-28.5-33.1-69.2-28.1-95.1-18.2
			c-11.2-24.4-37.6-54.3-86.9-47.5c-22,3.1-39.1,12.4-50.7,27.8c-12.8,17-15.3,36.6-15.6,49.7c-20.6,2.7-46.8,15.1-54,53
			c-0.8,4.8-1.2,9.3-1.2,13.5c0,29.7,19.6,47.9,31.4,53.8C368.5,635.6,376.2,633.1,379.4,626.7z M386.1,524l0.1,1.8L386.1,524
			L386.1,524z"/>
	</g>
</g>
</svg>
