<?xml version="1.0" encoding="utf-8"?>
<!-- Generator: Adobe Illustrator 16.0.0, SVG Export Plug-In . SVG Version: 6.00 Build 0)  -->
<!DOCTYPE svg PUBLIC "-//W3C//DTD SVG 1.1//EN" "http://www.w3.org/Graphics/SVG/1.1/DTD/svg11.dtd">
<svg version="1.1" id="Layer_1" xmlns="http://www.w3.org/2000/svg" xmlns:xlink="http://www.w3.org/1999/xlink" x="0px" y="0px"
	 width="30.684px" height="30.683px" viewBox="0 0 30.684 30.683" enable-background="new 0 0 30.684 30.683" xml:space="preserve">
<path d="M13.926,22.265v-6.783h-2.283v-2.643h2.283V10.89c0-2.263,1.381-3.494,3.399-3.494c0.967,0,1.799,0.071,2.04,0.104v2.364
	l-1.399,0.001c-1.098,0-1.311,0.521-1.311,1.286v1.688h2.618l-0.341,2.643h-2.277v6.783H13.926z M30.684,15.342
	C30.684,6.882,23.801,0,15.342,0C6.882,0,0,6.882,0,15.342C0,23.8,6.882,30.683,15.342,30.683
	C23.801,30.683,30.684,23.8,30.684,15.342 M29.334,15.342c0,7.715-6.277,13.992-13.993,13.992c-7.715,0-13.992-6.276-13.992-13.992
	C1.35,7.627,7.627,1.35,15.342,1.35C23.057,1.35,29.334,7.627,29.334,15.342"/>
</svg>
