<?xml version="1.0" encoding="utf-8"?>
<!-- Generator: Adobe Illustrator 16.0.0, SVG Export Plug-In . SVG Version: 6.00 Build 0)  -->
<!DOCTYPE svg PUBLIC "-//W3C//DTD SVG 1.1//EN" "http://www.w3.org/Graphics/SVG/1.1/DTD/svg11.dtd">
<svg version="1.1" id="Layer_1" xmlns="http://www.w3.org/2000/svg" xmlns:xlink="http://www.w3.org/1999/xlink" x="0px" y="0px"
	 width="25.25px" height="25.25px" viewBox="0 0 25.25 25.25" enable-background="new 0 0 25.25 25.25" xml:space="preserve">
<path fill="#231F20" d="M15.479,11.669c-0.753,0.794-1.798,1.289-2.953,1.289c-1.156,0-2.201-0.495-2.954-1.289
	c-1.343,0.552-2.296,1.872-2.296,3.408v4.313h10.5v-4.313C17.775,13.542,16.821,12.222,15.479,11.669"/>
<path fill="#231F20" d="M12.625,0C5.651,0,0,5.652,0,12.625C0,19.598,5.651,25.25,12.625,25.25c6.973,0,12.625-5.652,12.625-12.625
	C25.25,5.652,19.598,0,12.625,0 M12.625,23.5C6.629,23.5,1.75,18.622,1.75,12.625S6.629,1.75,12.625,1.75
	c5.997,0,10.875,4.878,10.875,10.875S18.622,23.5,12.625,23.5"/>
<path fill="#231F20" d="M12.524,11.458c1.657,0,3-1.414,3-3.158c0-1.745-1.343-3.159-3-3.159c-1.656,0-3,1.414-3,3.159
	C9.524,10.044,10.868,11.458,12.524,11.458"/>
</svg>
