<?xml version="1.0" encoding="utf-8"?>
<!-- Generator: Adobe Illustrator 16.0.0, SVG Export Plug-In . SVG Version: 6.00 Build 0)  -->
<!DOCTYPE svg PUBLIC "-//W3C//DTD SVG 1.1//EN" "http://www.w3.org/Graphics/SVG/1.1/DTD/svg11.dtd">
<svg version="1.1" id="Layer_1" xmlns="http://www.w3.org/2000/svg" xmlns:xlink="http://www.w3.org/1999/xlink" x="0px" y="0px"
	 width="30.684px" height="30.683px" viewBox="0 0 30.684 30.683" enable-background="new 0 0 30.684 30.683" xml:space="preserve">
<path fill="#231F20" d="M15.342,30.683C6.882,30.683,0,23.8,0,15.341S6.882,0,15.342,0s15.342,6.882,15.342,15.341
	S23.802,30.683,15.342,30.683 M15.342,1.349C7.627,1.349,1.35,7.627,1.35,15.341c0,7.715,6.277,13.992,13.992,13.992
	s13.991-6.277,13.991-13.992C29.333,7.627,23.057,1.349,15.342,1.349 M20.829,13.002c0-2.555-2.12-4.935-5.342-4.935
	c-4.01,0-6.031,2.934-6.031,5.382c0,1.482,0.55,2.8,1.729,3.291c0.192,0.081,0.366,0.002,0.422-0.216
	c0.038-0.15,0.131-0.532,0.171-0.69c0.057-0.216,0.035-0.291-0.121-0.481c-0.34-0.411-0.556-0.94-0.556-1.69
	c0-2.177,1.595-4.126,4.154-4.126c2.266,0,3.512,1.414,3.512,3.301c0,2.485-1.077,4.581-2.676,4.581
	c-0.885,0-1.544-0.745-1.332-1.659c0.253-1.091,0.745-2.27,0.745-3.057c0-0.705-0.371-1.294-1.139-1.294
	c-0.902,0-1.628,0.953-1.628,2.23c0,0.814,0.271,1.364,0.271,1.364s-0.925,3.995-1.085,4.694c-0.147,0.638-0.169,1.338-0.149,1.929
	c0.061,0.531,0.576,0.963,1.021,0.381c0.313-0.512,0.65-1.158,0.825-1.806c0.104-0.384,0.595-2.368,0.595-2.368
	c0.293,0.571,1.149,1.074,2.062,1.074C18.989,18.906,20.829,16.381,20.829,13.002"/>
</svg>
