<?xml version="1.0" encoding="utf-8"?>
<!-- Generator: Adobe Illustrator 16.0.0, SVG Export Plug-In . SVG Version: 6.00 Build 0)  -->
<!DOCTYPE svg PUBLIC "-//W3C//DTD SVG 1.1//EN" "http://www.w3.org/Graphics/SVG/1.1/DTD/svg11.dtd">
<svg version="1.1" id="Layer_1" xmlns="http://www.w3.org/2000/svg" xmlns:xlink="http://www.w3.org/1999/xlink" x="0px" y="0px"
	 width="20.384px" height="20.149px" viewBox="0 0 20.384 20.149" enable-background="new 0 0 20.384 20.149" xml:space="preserve">
<path fill="#231F20" d="M17.634,12.083l2.75-7.233H5.997L4.702,0H0.851C0.381,0,0,0.38,0,0.85c0,0.47,0.381,0.849,0.851,0.849H3.4
	l2.634,9.763v4.737h10.65c0.469,0,0.85-0.379,0.85-0.85c0-0.47-0.381-0.85-0.85-0.85h-8.95v-2.417H17.634z"/>
<path fill="#231F20" d="M8.695,17.35c-0.773,0-1.4,0.627-1.4,1.4c0,0.772,0.627,1.399,1.4,1.399s1.4-0.627,1.4-1.399
	C10.096,17.977,9.469,17.35,8.695,17.35"/>
<path fill="#231F20" d="M13.772,17.35c-0.772,0-1.399,0.627-1.399,1.4c0,0.772,0.627,1.399,1.399,1.399c0.773,0,1.4-0.627,1.4-1.399
	C15.173,17.977,14.546,17.35,13.772,17.35"/>
</svg>
