<?xml version="1.0" encoding="utf-8"?>
<!-- Generator: Adobe Illustrator 16.0.0, SVG Export Plug-In . SVG Version: 6.00 Build 0)  -->
<!DOCTYPE svg PUBLIC "-//W3C//DTD SVG 1.1//EN" "http://www.w3.org/Graphics/SVG/1.1/DTD/svg11.dtd">
<svg version="1.1" id="facebook_2_" xmlns="http://www.w3.org/2000/svg" xmlns:xlink="http://www.w3.org/1999/xlink" x="0px"
	 y="0px" width="29.175px" height="29.175px" viewBox="0 0 29.175 29.175" enable-background="new 0 0 29.175 29.175"
	 xml:space="preserve">
<path d="M27.639,0H1.532C0.697,0,0.021,0.667,0,1.498v26.185c0.021,0.819,0.682,1.478,1.503,1.493h14.226V18.074h-3.735v-4.326
	h3.735v-3.191c0-3.702,2.262-5.719,5.564-5.719c1.582,0,2.941,0.118,3.34,0.171v3.869l-2.291,0.001
	c-1.798,0-2.145,0.854-2.145,2.107v2.762h4.283l-0.557,4.326h-3.727v11.102h7.471c0.835-0.016,1.507-0.694,1.507-1.532V1.536
	C29.175,0.688,28.488,0,27.639,0z"/>
</svg>
